# Apple ModelIO OBJ File: ZOMBIE_GEANT_2
mtllib ZOMBIE_GEANT_2.mtl
g Cube_ZOMBIE_GEANT
v -0.530981 11.9104 0.319652
v -1 11.9104 0.319652
v -1 11.9104 0.41354
v -0.530981 11.9104 0.571082
v -0.530981 11.3997 0.807123
v -1 11.3997 0.505359
v -1 11.3997 -0.705407
v -1 11.9104 -0.488506
v -1 11.6282 -0.835968
v -1 11.3997 -0.940821
v 0.530981 9.91036 0.319652
v 1 9.91036 0.319652
v 1 10.2258 0.807123
v 0.530981 9.91036 0.807123
v 1 11.3997 0.319652
v 1 11.9104 0.319652
v 1 11.9104 0.41354
v 1 11.3997 0.505359
v 0.530981 11.3997 -1.19288
v 0.530981 11.6282 -1.02127
v 1 11.6282 -0.835968
v 1 11.3997 -0.940821
v -0.530981 11.3997 -1.19288
v -0.530981 11.6282 -1.02127
v 0.438744 11.3997 -1.19288
v 0.438744 11.6282 -1.02127
v -1 9.91036 0.319652
v -0.530981 9.91036 0.319652
v -1 10.2258 0.807123
v -0.530981 9.91036 0.807123
v 0.438744 9.91036 0.319652
v 0.438744 9.91036 0.807123
v 0.530981 11.3997 0.807123
v 0.530981 11.9104 0.571082
v -0.438744 11.3997 0.807123
v -0.438744 11.9104 0.571082
v 0.530981 11.9104 0.319652
v -0.438744 11.9104 0.319652
v -0.438744 11.6282 -1.02127
v -0.530981 11.9104 -0.705407
v -0.438744 11.9104 -0.705407
v -0.438744 11.9104 -0.115018
v -0.530981 11.9104 -0.115018
v 1 11.9104 -0.488506
v 0.530981 11.9104 -0.705407
v 1 11.9104 -0.115018
v 0.530981 11.9104 -0.115018
v 0.438744 10.3987 -1.06063
v 0.530981 10.3987 -1.06063
v 0.530981 9.91036 -0.705407
v 0.438744 9.91036 -0.705407
v -0.438744 9.91036 0.319652
v -0.530981 9.64743 0.319652
v -0.438744 9.64743 0.319652
v -1 10.3987 -0.774194
v -0.530981 10.3987 -1.06063
v -1 9.91036 -0.475809
v -0.530981 9.91036 -0.705407
v -1 9.91036 -0.115018
v -0.530981 9.91036 -0.115018
v 1 11.3997 -0.705407
v 1 11.3997 -0.115018
v 1 10.3987 -0.774194
v 1 9.91036 -0.475809
v 0.530981 9.91036 -0.115018
v 1 9.91036 -0.115018
v -1 11.3997 0.319652
v -1 11.3997 -0.726277
v -1 11.9104 -0.496789
v -1 11.9104 -0.115018
v -0.530981 9.64743 -0.726277
v -0.530981 9.64743 -0.705407
v -2.49124 8.86942 -1.21934
v -2.49124 8.86942 -0.908218
v 0.530981 9.64743 0.319652
v 0.530981 9.64743 -0.115018
v -0.530981 9.91036 -0.726277
v 0.530981 9.64743 -0.705407
v 0.438744 9.64743 -0.705407
v -1.8548 8.86942 0.808901
v -2.18572 8.86942 0.619719
v -1.8129 6.7961 1.27421
v -2.12286 6.7961 0.998169
v 2.18572 8.86942 0.619719
v 2.49124 8.86942 0.440506
v 2.49124 8.86942 -1.21934
v 2.05848 8.86942 -1.21934
v 2.05848 7.92581 -1.57755
v 2.49124 7.92581 -1.57755
v 2.49124 5.69677 -1.41469
v 2.05848 5.69677 -1.44572
v 2.12286 6.7961 0.998169
v 2.49124 7.17267 0.686968
v -2.49124 7.54924 -1.10539
v -2.49124 7.92581 -1.57755
v -1.6526 4.21091 2.60746
v -1.96619 4.23234 2.52489
v -1.79565 2.66627 2.02892
v -2.25835 2.87639 2.02892
v -2.49124 5.69677 -1.41469
v -2.49124 5.69677 -0.663977
v -2.05848 5.69677 2.10573
v -2.28291 5.69677 2.02892
v 2.49124 5.69677 1.44502
v 2.28291 5.69677 2.02892
v -0.870252 2.24604 1.44502
v -0.870252 2.24604 2.02892
v -0.870252 2.08746 2.02892
v -0.870252 2.08746 1.44502
v 2.49124 4.23234 2.03653
v 1.96619 4.23234 2.52489
v 2.25835 2.87639 2.02892
v 2.49124 2.87639 1.44502
v 2.00263 4.12324 -1.27149
v 2.49124 4.23234 -1.15333
v 1.95091 2.66627 -1.25388
v 2.49124 2.87639 -1.12692
v -2.49124 4.23234 -0.368223
v -2.49124 4.23234 -1.15333
v -2.49124 2.87639 -1.12692
v -2.49124 2.87639 -0.663977
v -1.51402 4.01414 -1.38965
v -1.02541 3.90505 -1.5078
v -0.870252 2.24604 -1.5078
v -1.41058 2.45616 -1.38084
v 0 3.90505 -1.5078
v 1.02541 3.90505 -1.5078
v 0.870252 2.24604 -1.5078
v 0 2.24604 -1.5078
v 2.13177 2.31649 2.02892
v 2.49124 2.31649 1.44502
v 0 2.24604 1.44502
v 0.870252 2.24604 1.44502
v 0.870252 2.24604 2.02892
v 0 2.24604 2.02892
v 1.50294 6.7961 1.42817
v 0.939008 6.7961 1.42817
v 1.62573 5.69677 2.18254
v 1.19297 5.69677 2.25935
v 0 6.7961 1.34643
v -0.939008 6.7961 1.42817
v 0 5.69677 2.25935
v -1.19297 5.69677 2.25935
v 1.339 4.18949 2.69003
v 1.02541 4.16806 2.77261
v 1.33295 2.45616 2.02892
v 0 4.16806 2.77261
v -1.02541 4.16806 2.77261
v -1.62573 8.86942 -1.21934
v -1.19297 8.86942 -1.21934
v -1.19297 7.92581 -1.57755
v -1.62573 7.92581 -1.57755
v 0 8.86942 -1.21934
v 1.19297 8.86942 -1.21934
v 1.19297 7.92581 -1.57755
v 0 7.92581 -1.57755
v -1.62573 5.69677 -1.47676
v -1.19297 5.69677 -1.5078
v 1.19297 5.69677 -1.5078
v 0 5.69677 -1.5078
v -0.346506 9.64743 -0.705407
v -0.254269 9.64743 -0.705407
v 0 9.64743 -0.705407
v 0.254269 9.64743 -0.705407
v 0.346506 9.64743 0.319652
v 0.254269 9.64743 0.319652
v 1.19297 8.74221 1.04242
v 1.52389 8.7661 1.03399
v 0 9.64743 0.319652
v -0.254269 9.64743 0.319652
v -1.19297 8.74221 1.04242
v 0 8.86942 0.903704
v -0.346506 9.91036 -0.705407
v -0.254269 9.91036 -0.705407
v 0 9.91036 -0.705407
v 0.254269 9.91036 -0.705407
v 0.346506 9.91036 0.319652
v 0.254269 9.91036 0.319652
v 0 9.91036 0.319652
v -0.254269 9.91036 0.319652
v -0.346506 10.3987 -1.06063
v -0.254269 10.3987 -1.06063
v 0 10.3987 -1.06063
v 0.254269 10.3987 -1.06063
v 0.346506 11.9104 -0.115018
v 0.254269 11.9104 -0.115018
v 0.254269 11.9104 0.319652
v 0.346506 11.9104 0.319652
v 0 11.9104 -0.115018
v -0.254269 11.9104 -0.115018
v -0.254269 11.9104 0.319652
v 0 11.9104 0.319652
v 0.346506 11.6282 -1.02127
v 0.254269 11.6282 -1.02127
v 0.254269 11.9104 -0.705407
v 0.346506 11.9104 -0.705407
v 0 11.6282 -1.02127
v -0.254269 11.6282 -1.02127
v -0.254269 11.9104 -0.705407
v 0 11.9104 -0.705407
v 0.254269 11.9104 0.571082
v 0.346506 11.9104 0.571082
v -0.254269 11.9104 0.571082
v 0 11.9104 0.571082
v 0.346506 11.3997 0.807123
v 0.254269 11.3997 0.807123
v 0 11.3997 0.807123
v -0.254269 11.3997 0.807123
v -0.346506 9.91036 0.319652
v -0.254269 9.91036 0.807123
v -0.346506 9.91036 0.807123
v 0.254269 9.91036 0.807123
v 0 9.91036 0.807123
v -0.346506 11.3997 -1.19288
v -0.346506 11.6282 -1.02127
v -0.254269 11.3997 -1.19288
v 0 11.3997 -1.19288
v 0.254269 11.3997 -1.19288
v 1.29076 2.1638 2.02892
v 0.870252 2.08746 2.02892
v 1.03667 1.39576 2.14056
v 0.400033 1.30626 2.14056
v 0.870252 2.08746 -0.663977
v 0.870252 2.08746 -1.5078
v 0.400033 1.30626 -1.29176
v 0.400033 1.30626 -0.763415
v -1.41058 2.1638 -1.35801
v -0.870252 2.08746 -1.5078
v -2.49124 2.31649 -1.05841
v -2.49124 2.31649 -0.663977
v 2.49124 2.31649 -1.05841
v 1.95091 2.24015 -1.20821
v 0.870252 2.24604 -0.663977
v -1.71126 2.24015 2.02892
v -2.13177 2.31649 2.02892
v 0.344926 -0.11915 1.75481
v 0.932388 -0.106656 1.75481
v 0.344926 -0.11915 -0.907313
v 0.344926 -0.11915 -0.566245
v -2.30994 1.57474 2.14056
v -1.67331 1.48525 2.14056
v 2.30994 1.57474 2.14056
v 2.63081 1.57474 1.49517
v -0.400033 1.30626 2.14056
v -0.400033 1.30626 1.49517
v 1.88722 1.48525 -1.647
v 2.63081 1.57474 -1.38909
v -1.14363 1.39576 -1.647
v -0.400033 1.30626 -1.29176
v -2.63081 1.57474 -1.38909
v -2.63081 1.57474 -0.763415
v -2.20722 -0.715793 -0.367219
v -2.20722 -0.715793 -0.787463
v -1.78363 -1.34992 -0.460997
v -1.78363 -1.34992 -0.168194
v -1.01584 -0.736758 -0.955043
v -0.420155 -0.747241 -0.694669
v -0.924797 -1.36686 -0.621284
v -0.495383 -1.37533 -0.415528
v -1.51985 -0.094161 1.75481
v -2.10731 -0.081667 1.75481
v 2.10731 -0.081667 1.75481
v 2.63081 -0.081667 1.24871
v -0.344926 -0.11915 1.75481
v -0.344926 -0.11915 1.24871
v 2.63081 -0.081667 -1.03033
v 1.86885 -0.094161 -1.2888
v -1.10689 -0.106656 -1.2888
v -0.344926 -0.11915 -0.907313
v -2.63081 -0.081667 -1.03033
v -2.63081 -0.081667 -0.566245
v 1.35421 -1.35839 0.850656
v 1.78363 -1.34992 0.850656
v 1.29421 -1.35839 1.08729
v 1.69363 -1.34992 1.08729
v -0.924797 -1.36686 0.850656
v -0.495383 -1.37533 0.850656
v -0.495383 -1.37533 1.08729
v -0.894798 -1.36686 1.08729
v 0.420155 -0.747241 -0.367219
v 0.420155 -0.747241 -0.694669
v 0.495383 -1.37533 -0.415528
v 0.495383 -1.37533 -0.168194
v -0.420155 -0.747241 1.42105
v -0.495383 -1.37533 2.09714
v -0.420155 -1.07406 2.4309
v 2.06377 -0.715793 1.42105
v 1.89396 -1.34992 2.09714
v 1.85281 -0.997205 2.4309
v 2.20722 -0.715793 1.04968
v -0.420155 -0.747241 1.04968
v 1.61153 -0.726275 -0.955043
v 2.20722 -0.715793 -0.787463
v 1.35421 -1.35839 -0.621284
v 1.78363 -1.34992 -0.460997
v 2.49124 5.69677 -0.663977
v 2.49124 4.23234 -0.368223
v 2.49124 5.69677 0.390523
v 2.49124 4.23234 0.834155
v -2.49124 5.69677 1.44502
v -2.49124 4.23234 2.03653
v -2.49124 5.69677 0.390523
v -2.49124 4.23234 0.834155
v -0.420155 -0.747241 -0.367219
v -0.495383 -1.37533 -0.168194
v -0.420155 -0.747241 0.341231
v -0.495383 -1.37533 0.341231
v 2.20722 -0.715793 -0.367219
v 1.78363 -1.34992 -0.168194
v 2.20722 -0.715793 0.341231
v 1.78363 -1.34992 0.341231
v 0.420155 -0.747241 1.42105
v 0.420155 -0.747241 1.04968
v 0.495383 -1.37533 0.850656
v 0.495383 -1.37533 1.08729
v 0.420155 -0.747241 0.341231
v 0.495383 -1.37533 0.341231
v -0.924797 -1.36686 -0.168194
v -0.924797 -1.36686 0.341231
v 1.35421 -1.35839 -0.168194
v 1.35421 -1.35839 0.341231
v -2.63081 1.57474 1.49517
v -2.63081 -0.081667 1.24871
v -2.78468 1.57474 0.365877
v -2.76894 -0.081667 0.341231
v -0.400033 1.30626 -0.763415
v -0.344926 -0.11915 -0.566245
v -0.400033 1.30626 0.365877
v -0.344926 -0.11915 0.341231
v 2.63081 1.57474 -0.763415
v 2.63081 -0.081667 -0.566245
v 2.78468 1.57474 0.365877
v 2.76894 -0.081667 0.341231
v -2.06377 -0.715793 1.42105
v -2.20722 -0.715793 1.04968
v -1.69363 -1.34992 1.08729
v -1.78363 -1.34992 0.850656
v -2.20722 -0.715793 0.341231
v -1.78363 -1.34992 0.341231
v -2.49124 2.31649 1.44502
v -2.49124 2.31649 0.390523
v -0.870252 2.08746 -0.663977
v -0.870252 2.08746 0.390523
v 2.49124 2.31649 -0.663977
v 2.49124 2.31649 0.390523
v 0.400033 1.30626 1.49517
v 0.344926 -0.11915 1.24871
v 0.400033 1.30626 0.365877
v 0.344926 -0.11915 0.341231
v 0.870252 2.08746 1.44502
v 0.870252 2.24604 0.390523
v 0.870252 2.08746 0.390523
v -2.49124 2.87639 1.44502
v -2.49124 2.87639 0.390523
v -0.254269 11.9104 -0.726277
v 0 11.9104 -0.726277
v 0 11.9104 -0.420647
v -0.254269 11.9104 -0.420647
v 0.254269 11.9104 -0.726277
v 0.346506 11.9104 -0.726277
v 0.346506 11.9104 -0.420647
v 0.254269 11.9104 -0.420647
v 0 2.24604 -0.663977
v 0 2.24604 0.390523
v 2.49124 2.87639 -0.663977
v 2.49124 2.87639 0.390523
v -0.870252 2.24604 -0.663977
v -0.870252 2.24604 0.390523
v 2.49124 7.54924 -1.10539
v 2.49124 7.36096 -0.20921
v -2.49124 7.17267 0.686968
v -2.49124 7.36096 -0.20921
v -2.49124 8.86942 0.440506
v 4.27188 7.44787 -0.225729
v 4.3958 7.60259 -0.982241
v 4.69512 7.51327 -0.958683
v 4.69512 7.48171 -0.211255
v 2.49124 8.86942 -0.908218
v 4.43901 8.68743 0.35468
v 4.14795 7.29314 0.530784
v 4.69512 8.61432 0.330619
v 4.69512 7.45014 0.536173
v 0.530981 9.64743 -0.726277
v 0.530981 9.64743 -0.420647
v 2.49124 8.86942 -0.233856
v -0.530981 9.64743 -0.115018
v -0.530981 9.91036 -0.420647
v -0.530981 9.64743 -0.420647
v 0.530981 9.91036 -0.726277
v 0.530981 9.91036 -0.420647
v -2.49124 8.86942 -0.233856
v -0.530981 11.9104 -0.726277
v -0.530981 11.9104 -0.420647
v -1 11.9104 -0.305903
v -1 11.3997 -0.115018
v -1 11.3997 -0.420648
v 1 9.91036 -0.496679
v 1 9.91036 -0.305849
v 1 11.3997 -0.726277
v 1 11.9104 -0.496789
v 1 11.3997 -0.420648
v 1 11.9104 -0.305903
v -1 9.91036 -0.496679
v -1 9.91036 -0.305849
v 0.530981 11.9104 -0.726277
v 0.530981 11.9104 -0.420647
v -0.438744 11.9104 -0.726277
v -0.438744 11.9104 -0.420647
v -5.13153 7.4334 0.705005
v -5.13153 8.63618 0.45365
v -7.32395 8.04114 0.035189
v -7.32395 7.38318 0.13076
v 5.13153 7.4188 -0.817436
v 5.13153 8.63618 -0.921851
v 7.32395 7.5292 -0.564269
v 7.32395 8.04114 -0.487812
v -4.58124 8.68743 -0.789355
v -4.3958 7.60259 -0.982241
v -4.69512 8.61432 -0.79424
v -4.69512 7.51327 -0.958683
v -4.27188 7.44787 -0.225729
v -4.14795 7.29314 0.530784
v -4.69512 7.48171 -0.211255
v -4.69512 7.45014 0.536173
v 4.51013 8.68743 -0.217337
v 4.69512 8.61432 -0.231811
v -4.51013 8.68743 -0.217337
v -4.69512 8.61432 -0.231811
v 4.58124 8.68743 -0.789355
v 4.69512 8.61432 -0.79424
v -4.43901 8.68743 0.35468
v -4.69512 8.61432 0.330619
v -7.32395 8.04114 -0.226311
v -7.32395 8.04114 -0.487812
v -7.32395 7.45619 -0.216754
v -7.32395 7.5292 -0.564269
v 7.32395 8.04114 -0.226311
v 7.32395 8.04114 0.035189
v 7.32395 7.38318 0.13076
v 7.32395 7.45619 -0.216754
v -5.13153 7.4261 -0.056216
v -5.13153 8.63618 -0.234101
v -5.13153 8.63618 -0.921851
v 5.13153 8.63618 0.45365
v 5.13153 7.4334 0.705005
v -5.13153 7.4188 -0.817436
v 5.13153 7.4261 -0.056216
v 5.13153 8.63618 -0.234101
v -2.64951 7.27956 0.61157
v -3.0388 8.786 0.385562
v -3.0388 8.786 -0.851229
v -3.0388 8.786 -0.232833
v -2.69271 7.44672 -0.210232
v -2.73591 7.61389 -1.03203
v 2.73591 7.61389 -1.03203
v 3.0388 8.786 -0.851229
v 3.0388 8.786 0.385562
v 3.0388 8.786 -0.232833
v 2.64951 7.27956 0.61157
v 2.69271 7.44672 -0.210232
v -3.02078 7.38708 0.573872
v -3.555 8.76054 0.358091
v -3.555 8.76054 -0.822734
v -3.555 8.76054 -0.232322
v -3.08007 7.53949 -0.210744
v -3.13935 7.6919 -0.995359
v 3.13935 7.6919 -0.995359
v 3.555 8.76054 -0.822734
v 3.555 8.76054 0.358091
v 3.555 8.76054 -0.232322
v 3.02078 7.38708 0.573872
v 3.08007 7.53949 -0.210744
v -1.5159 -0.726275 1.42105
v 0.968025 -0.736758 1.42105
v 0.897707 -1.04844 2.4309
v 0.420155 -1.07406 2.4309
v 0.495383 -1.37533 2.09714
v 0.961574 -1.36686 2.09714
v -1.37526 -1.02282 2.4309
v -1.85281 -0.997205 2.4309
v -1.42777 -1.35839 2.09714
v -1.89396 -1.34992 2.09714
v 1.42777 -1.35839 2.09714
v -0.961574 -1.36686 2.09714
v 0.894798 -1.36686 1.08729
v 1.5159 -0.726275 1.42105
v 1.37526 -1.02282 2.4309
v 1.51985 -0.094161 1.75481
v 1.10689 -0.106656 -1.2888
v 1.01584 -0.736758 -0.955043
v 0.438744 11.9104 -0.420647
v 0.438744 11.9104 -0.115018
v 0.438744 11.9104 -0.705407
v 0.438744 11.9104 -0.726277
v 0.924797 -1.36686 0.341231
v 0.924797 -1.36686 0.850656
v 0.924797 -1.36686 -0.621284
v 0.924797 -1.36686 -0.168194
v 1.62573 5.69677 -1.47676
v 1.51402 4.01414 -1.38965
v 2.05848 5.69677 2.10573
v 1.6526 4.21091 2.60746
v 1.14363 1.39576 -1.647
v 1.41058 2.1638 -1.35801
v 1.67331 1.48525 2.14056
v 1.41058 2.45616 -1.38084
v 1.79565 2.66627 2.02892
v 1.71126 2.24015 2.02892
v 0.438744 11.9104 0.571082
v 0.438744 11.3997 0.807123
v 0.438744 11.9104 0.319652
v 0.438744 9.64743 0.319652
v 1.8548 8.86942 0.808901
v 1.8129 6.7961 1.27421
v 1.62573 8.86942 -1.21934
v 1.62573 7.92581 -1.57755
v 0.346506 9.64743 -0.705407
v 0.346506 9.91036 -0.705407
v 0.346506 10.3987 -1.06063
v 0.346506 9.91036 0.807123
v 0.346506 11.3997 -1.19288
v -0.968025 -0.736758 1.42105
v -0.897707 -1.04844 2.4309
v -1.29421 -1.35839 1.08729
v -1.86885 -0.094161 -1.2888
v -1.61153 -0.726275 -0.955043
v -0.932388 -0.106656 1.75481
v -0.346506 11.9104 -0.420647
v -0.346506 11.9104 -0.115018
v -0.346506 11.9104 -0.705407
v -0.346506 11.9104 -0.726277
v -1.35421 -1.35839 0.341231
v -1.35421 -1.35839 0.850656
v -1.35421 -1.35839 -0.621284
v -1.35421 -1.35839 -0.168194
v -1.62573 5.69677 2.18254
v -1.339 4.18949 2.69003
v -2.05848 5.69677 -1.44572
v -2.00263 4.12324 -1.27149
v -1.88722 1.48525 -1.647
v -1.03667 1.39576 2.14056
v -1.95091 2.24015 -1.20821
v -1.29076 2.1638 2.02892
v -1.33295 2.45616 2.02892
v -1.95091 2.66627 -1.25388
v -0.438744 11.3997 -1.19288
v -0.438744 9.91036 0.807123
v -0.438744 10.3987 -1.06063
v -0.438744 9.91036 -0.705407
v -0.438744 9.64743 -0.705407
v -2.05848 8.86942 -1.21934
v -2.05848 7.92581 -1.57755
v -1.50294 6.7961 1.42817
v -0.346506 9.64743 0.319652
v -1.52389 8.7661 1.03399
v -0.346506 11.9104 0.319652
v -0.346506 11.9104 0.571082
v -0.346506 11.3997 0.807123
v -0.346506 10.7233 1.15347
v -0.438744 10.7233 1.15347
v -0.254269 10.7233 1.15347
v -0.438744 10.7233 -1.19288
v -0.346506 10.7233 -1.19288
v -0.530981 10.7233 -1.19288
v 0.346506 10.7233 -1.19288
v 0.438744 10.7233 -1.19288
v 0.254269 10.7233 -1.19288
v 0.438744 10.7233 1.15347
v 0.346506 10.7233 1.15347
v 0.530981 10.7233 1.15347
v 1 10.7233 -0.420648
v 1 10.7233 -0.115018
v 1 10.7233 -0.705407
v 1 10.7233 -0.726277
v -1 10.7233 -0.420648
v -1 10.7233 -0.726277
v -1 10.7233 0.319652
v -1 10.7233 -0.115018
v 0 10.7233 -1.19288
v -0.254269 10.7233 -1.19288
v 0 10.7233 1.15347
v 0.254269 10.7233 1.15347
v -1 10.7233 -0.705407
v -1 10.7233 0.739826
v 1 10.7233 0.319652
v 1 10.7233 -0.943872
v -0.530981 10.7233 1.15347
v 1 10.7233 0.739826
v 0.530981 10.7233 -1.19288
v -1 10.7233 -0.943872
vn 0 1 0
vn -0.4225 0.2771 0.863
vn -1 0 0
vn 0.3047 -0.9062 0.2932
vn 1 0 0
vn 0.3705 0.4809 -0.7947
vn -0.3705 0.4809 -0.7947
vn 0 0.6006 -0.7995
vn -0.3047 -0.9062 0.2932
vn 0 -1 0
vn 0.4225 0.2771 0.863
vn 0 0.4196 0.9077
vn 0 0.7458 -0.6662
vn 0.2677 0.7338 -0.6244
vn 0 -0.5883 -0.8087
vn 0 0 1
vn -0.4158 -0.5058 -0.7558
vn 0.4158 -0.5058 -0.7558
vn -0.2677 0.7338 -0.6244
vn -0.3689 0.9295 0
vn 0 0 -1
vn -0.581 0.1482 0.8003
vn -0.2527 0.7853 0.5652
vn 0.3537 0.9186 0.1761
vn 0 0.5512 -0.8344
vn 0.0358 -0.0659 -0.9972
vn 0.5352 0.1294 0.8348
vn 0 0.3549 -0.9349
vn -0.1929 -0.3153 0.9292
vn -0.4285 0.6287 0.6489
vn 0.6434 0.4633 0.6094
vn 0.8083 -0.142 0.5714
vn 0.2374 -0.0196 -0.9712
vn -0.2381 -0.0218 -0.971
vn 0.8873 -0.1003 0.4501
vn 0.062 0.5908 0.8045
vn 0.0301 0.619 0.7848
vn 0.204 -0.359 0.9108
vn 0 -0.3609 0.9326
vn -0.0358 -0.0382 -0.9986
vn 0 -0.0313 -0.9995
vn -0.0189 0.613 0.7899
vn 0.0231 0.605 0.7959
vn 0.004 0.1951 0.9808
vn 0.0884 0.2064 0.9745
vn -0.0241 0.1536 0.9878
vn -0.8568 0.5157 0
vn -0.2599 -0.0488 -0.9644
vn 0.274 -0.1106 -0.9553
vn 0.0213 -0.2558 0.9665
vn -0.9993 0.0386 0
vn 0.0228 0.1454 0.9891
vn 0.8507 0.2336 0.4708
vn 0.8568 0.5157 0
vn 0.2156 0.4551 -0.8639
vn 0.1728 0.1282 -0.9766
vn -0.9828 0.1849 0
vn -0.8315 -0.5555 0
vn 0.3727 -0.4026 -0.8361
vn -0.0195 -0.2339 0.9721
vn 0.796 -0.1601 0.5837
vn 0.9993 0.0386 0
vn 0.3299 -0.206 -0.9213
vn 0.4181 -0.211 -0.8836
vn 0.0204 -0.9998 0.0065
vn -0.0204 -0.9998 0.0013
vn -0.9929 -0.1189 0
vn 0.9894 -0.1435 -0.0232
vn 0.9551 -0.2941 -0.036
vn 0.7523 -0.5922 0.2888
vn 0.9929 -0.1189 0
vn 0.263 -0.5535 -0.7903
vn 0 0.3183 0.948
vn 0.1922 0.2868 0.9385
vn -0.1641 -0.0379 -0.9857
vn 0.1747 -0.1429 -0.9742
vn 0.8195 0.1195 0.5605
vn -0.2659 0.2497 0.9311
vn -0.8195 0.1195 0.5605
vn 0.8315 -0.5555 0
vn -0.0197 -0.9998 0
vn 0.0197 -0.9998 0
vn -0.796 -0.1601 0.5837
vn -0.9898 -0.0121 -0.1419
vn 0.9897 -0.0163 0.1419
vn -0.7523 -0.5922 0.2888
vn -0.8507 0.2336 0.4708
vn -0.9562 0.2847 -0.0674
vn 0.9828 0.1849 0
vn 0.9574 0.2806 0.0675
vn -0.8873 -0.1003 0.4501
vn -0.8083 -0.142 0.5714
vn -0.6434 0.4633 0.6094
vn -0.5352 0.1294 0.8348
vn -0.0692 -0.9893 -0.1282
vn 0.0077 0.1467 0.9892
vn 0.3689 0.9295 0
vn -0.3537 0.9186 0.1761
vn -0.2421 0.1778 0.9538
vn 0.1531 -0.016 -0.9881
vn -0.1041 0.1518 -0.9829
vn -0.194 -0.9754 -0.1048
vn 0.3161 0.9485 0.0198
vn -0.4407 0.8972 0.0276
vn 0.1041 0.1518 -0.9829
vn -0.0077 0.1467 0.9892
vn 0.0145 -0.9981 -0.0592
vn -0.2619 0.9651 0
vn 0.2421 0.1778 0.9538
vn -0.1531 -0.016 -0.9881
vn 0.0332 -0.9977 -0.0591
vn 0.2619 0.9651 0
vn -0.1763 0.1226 0.9767
vn -0.1506 0.9886 0
vn -0.4365 -0.8832 -0.1718
vn -0.164 0.1284 -0.9781
vn 0.164 0.1284 -0.9781
vn 0.1506 0.9886 0
vn 0.1763 0.1226 0.9767
vn 0.3405 -0.9224 -0.1823
vn -0.0604 0.1324 0.9894
vn -0.0493 0.9988 0
vn -0.2431 -0.9542 -0.1743
vn -0.0623 0.136 -0.9888
vn 0.0623 0.136 -0.9888
vn 0.0493 0.9988 0
vn 0.0604 0.1324 0.9894
vn 0.2155 -0.9603 -0.1773
vn -0.0178 0.0259 -0.9995
vn 0.05 0.9987 0
vn 0.0767 -0.9969 -0.016
vn 0.3129 0.18 0.9326
vn -0.05 0.9987 0
vn -0.1642 -0.9863 -0.0159
vn -0.3129 0.18 0.9326
vn 0.0178 0.0259 -0.9995
vn -0.7828 -0.6187 -0.0669
vn -0.6983 -0.4802 0.5308
vn -0.0094 -0.4666 0.8844
vn 0.3934 -0.3621 -0.8451
vn 0.7828 -0.6187 0.0669
vn 0.2648 -0.5139 -0.8159
vn 0.6983 -0.4802 0.5308
vn 0.0095 -0.468 0.8837
vn 0.0264 -0.7299 0.6831
vn -0.0251 -0.6942 0.7193
vn -0.0336 0.9533 0.3002
vn 0.0196 -0.9998 -0.0032
vn -0.9894 -0.1435 -0.0232
vn -0.0196 -0.9998 -0.0006
vn 0.0339 0.9624 0.2695
vn -0.9551 -0.2941 -0.036
vn 0.0196 -0.9998 -0.0006
vn 0.0196 -0.9998 -0.0019
vn -0.0339 0.9624 0.2695
vn -0.0337 0.9579 0.285
vn 0.0251 -0.6942 0.7193
vn 0.0257 -0.7118 0.7019
vn 0.0094 -0.4666 0.8844
vn 0.0095 -0.4673 0.8841
vn -0.3934 -0.3621 -0.8451
vn 0.0079 -0.4692 -0.8831
vn 0.1641 -0.0379 -0.9857
vn 0.1693 -0.0875 -0.9817
vn 0.2659 0.2497 0.9311
vn 0.1934 0.273 0.9424
vn -0.3727 -0.4026 -0.8361
vn 0.0087 -0.4694 -0.883
vn 0.0204 -0.9998 0.0013
vn 0.0204 -0.9998 0.0039
vn -0.4181 -0.211 -0.8836
vn 0.0154 -0.2267 -0.9739
vn -0.1728 0.1282 -0.9766
vn 0.0512 0.4215 -0.9054
vn 0.0195 -0.2339 0.9721
vn 0.0204 -0.2444 0.9695
vn 0.2599 -0.0488 -0.9644
vn 0.2697 -0.0914 -0.9586
vn -0.0228 0.1454 0.9891
vn -0.0234 0.1494 0.9885
vn 0.581 0.1482 0.8003
vn 0.4801 0.1752 0.8595
vn 0.2527 0.7853 0.5652
vn 0.1681 0.7373 0.6543
vn 0.1929 -0.3153 0.9292
vn 0.199 -0.3394 0.9194
vn 0.4285 0.6287 0.6489
vn 0.2387 0.5941 0.7682
vn 0.2381 -0.0218 -0.971
vn 0.2378 -0.0207 -0.9711
vn 0.0358 -0.0382 -0.9986
vn 0.0358 -0.0521 -0.998
vn 0.0336 0.9533 0.3002
vn 0.0337 0.9579 0.285
vn -0.0196 -0.9998 -0.0032
vn -0.0196 -0.9998 -0.0019
vn -0.0264 -0.7299 0.6831
vn -0.0257 -0.7118 0.7019
vn -0.2648 -0.5139 -0.8159
vn -0.0079 -0.4692 -0.8831
vn -0.0095 -0.468 0.8837
vn -0.0095 -0.4673 0.8841
vn -0.1922 0.2868 0.9385
vn -0.1934 0.273 0.9424
vn -0.1747 -0.1429 -0.9742
vn -0.1693 -0.0875 -0.9817
vn -0.0204 -0.9998 0.0065
vn -0.0204 -0.9998 0.0039
vn -0.3299 -0.206 -0.9213
vn -0.0154 -0.2267 -0.9739
vn -0.0213 -0.2558 0.9665
vn -0.0204 -0.2444 0.9695
vn -0.263 -0.5535 -0.7903
vn -0.0087 -0.4694 -0.883
vn -0.2156 0.4551 -0.8639
vn -0.0512 0.4215 -0.9054
vn 0.0241 0.1536 0.9878
vn 0.0234 0.1494 0.9885
vn -0.274 -0.1106 -0.9553
vn -0.2697 -0.0914 -0.9586
vn -0.0358 -0.0659 -0.9972
vn -0.0358 -0.0521 -0.998
vn -0.2374 -0.0196 -0.9712
vn -0.2378 -0.0207 -0.9711
vn -0.062 0.5908 0.8045
vn -0.2387 0.5941 0.7682
vn -0.204 -0.359 0.9108
vn -0.199 -0.3394 0.9194
vn 0.0189 0.613 0.7899
vn -0.1681 0.7373 0.6543
vn -0.004 0.1951 0.9808
vn -0.4801 0.1752 0.8595
vn -0.0337 0.1302 0.9909
vn -0.0735 0.9973 0.0045
vn 0.0832 -0.9754 -0.2043
vn -0.0314 0.1587 -0.9868
vn 0.0314 0.1587 -0.9868
vn 0.0792 0.9968 0.0048
vn 0.0337 0.1302 0.9909
vn -0.0723 -0.9765 -0.2032
vn 0 0.4557 0.8901
vn 0.5739 0.3231 0.7525
vn -0.4712 0.002 -0.882
vn 0.4712 0.002 -0.882
vn -0.5739 0.3231 0.7525
vn -0.4482 -0.1862 0.8744
vn 0.4597 -0.3745 -0.8053
vn -0.4597 -0.3745 -0.8053
vn 0 -0.3773 -0.9261
vn 0.4482 -0.1862 0.8744
vn 0 -0.392 0.92
vn -0.0884 0.2064 0.9745
vn -0.0231 0.605 0.7959
vn -0.0301 0.619 0.7848
vn -0.0832 -0.9754 -0.2043
vn 0.0735 0.9973 0.0045
vn 0.0723 -0.9765 -0.2032
vn -0.0792 0.9968 0.0048
vn 0.7828 -0.6187 -0.0669
vn -0.7828 -0.6187 0.0669
vn -0.0767 -0.9969 -0.016
vn 0.1642 -0.9863 -0.0159
vn 0.2431 -0.9542 -0.1743
vn -0.2155 -0.9603 -0.1773
vn 0.4365 -0.8832 -0.1718
vn -0.3405 -0.9224 -0.1823
vn -0.0145 -0.9981 -0.0592
vn -0.0332 -0.9977 -0.0591
vn -0.3161 0.9485 0.0198
vn 0.4407 0.8972 0.0276
vn 0.0692 -0.9893 -0.1282
vn 0.194 -0.9754 -0.1048
vn 0.9562 0.2847 -0.0674
vn -0.9574 0.2806 0.0675
vn 0.9898 -0.0121 -0.1419
vn -0.9897 -0.0163 0.1419
vt 0.172008 0.668553
vt 0.172008 0.643928
vt 0.176937 0.643928
vt 0.185209 0.668553
vt 0.474013 0.475077
vt 0.477185 0.445895
vt 0.502933 0.444815
vt 0.502933 0.471858
vt 0.877188 0.353147
vt 0.888746 0.379883
vt 0.870409 0.365183
vt 0.864828 0.353225
vt 0.803638 0.302111
vt 0.780297 0.304412
vt 0.775019 0.275341
vt 0.803638 0.277641
vt 0.465224 0.62302
vt 0.472329 0.59717
vt 0.477083 0.598477
vt 0.474626 0.625605
vt 0.978868 0.42787
vt 0.993415 0.431259
vt 0.993415 0.4577
vt 0.980438 0.455747
vt 0.390982 0.966642
vt 0.403959 0.96469
vt 0.389413 0.994519
vt 0.403959 0.991131
vt 0.994456 0.160617
vt 0.979455 0.160617
vt 0.979455 0.155774
vt 0.994456 0.155774
vt 0.508211 0.444815
vt 0.531552 0.447116
vt 0.502933 0.473887
vt 0.531552 0.471586
vt 0.984695 0.050915
vt 0.984695 0.055758
vt 0.9591 0.055758
vt 0.9591 0.050915
vt 0.465232 0.445999
vt 0.465232 0.473041
vt 0.436311 0.44278
vt 0.439483 0.471962
vt 0.941756 0.913253
vt 0.912221 0.913253
vt 0.912221 0.90841
vt 0.941756 0.90841
vt 0.172008 0.748937
vt 0.172008 0.724311
vt 0.185209 0.724311
vt 0.176937 0.748937
vt 0.172008 0.673396
vt 0.185209 0.673396
vt 0.716269 0.939697
vt 0.716269 0.94454
vt 0.694032 0.94454
vt 0.694032 0.939697
vt 0.149185 0.673396
vt 0.149185 0.668553
vt 0.767034 0.966406
vt 0.767034 0.992878
vt 0.744518 0.959691
vt 0.745651 0.986794
vt 0.149185 0.748937
vt 0.149185 0.724311
vt 0.716562 0.908776
vt 0.716562 0.903933
vt 0.748266 0.903933
vt 0.748266 0.908776
vt 0.437166 0.778317
vt 0.437166 0.773474
vt 0.450971 0.773474
vt 0.450971 0.778317
vt 0.092233 0.985805
vt 0.064501 0.993695
vt 0.092233 0.955781
vt 0.065561 0.962028
vt 0.964665 0.913884
vt 0.98929 0.913884
vt 0.98929 0.936706
vt 0.964665 0.936706
vt 0.858141 0.191235
vt 0.863722 0.179277
vt 0.870501 0.191314
vt 0.882059 0.164577
vt 0.443218 0.616972
vt 0.450323 0.591121
vt 0.812513 0.958968
vt 0.840245 0.966857
vt 0.840245 0.996882
vt 0.813573 0.990634
vt 0.965164 0.306966
vt 0.98979 0.306966
vt 0.98979 0.329788
vt 0.965164 0.329788
vt 0.400402 0.658628
vt 0.402859 0.685756
vt 0.391 0.661212
vt 0.398105 0.687062
vt 0.314983 0.568905
vt 0.327202 0.542173
vt 0.316079 0.568912
vt 0.327637 0.542176
vt 0.945667 0.550123
vt 0.945667 0.576596
vt 0.923151 0.58331
vt 0.924284 0.556208
vt 0.149185 0.643928
vt 0.441672 0.585809
vt 0.442768 0.585809
vt 0.415784 0.475077
vt 0.432119 0.475077
vt 0.982064 0.7268
vt 0.982064 0.703977
vt 0.995869 0.703977
vt 0.995869 0.7268
vt 0.327244 0.370285
vt 0.326148 0.370285
vt 0.326148 0.35648
vt 0.327244 0.35648
vt 0.171137 0.75378
vt 0.171137 0.748937
vt 0.184942 0.748937
vt 0.184942 0.75378
vt 0.886321 0.00226
vt 0.906091 0
vt 0.884631 0.113814
vt 0.906091 0.110685
vt 0.242391 0.726775
vt 0.244157 0.731116
vt 0.229803 0.814504
vt 0.244157 0.828397
vt 0.716269 0.888783
vt 0.694533 0.883107
vt 0.702544 0.786231
vt 0.716269 0.774344
vt 0.538261 0.335015
vt 0.538261 0.339858
vt 0.489304 0.44278
vt 0.489304 0.420058
vt 0.476586 0.815767
vt 0.453879 0.815767
vt 0.45385 0.698423
vt 0.476615 0.698531
vt 0.884342 0.5856
vt 0.902797 0.587772
vt 0.902797 0.698476
vt 0.880327 0.675529
vt 0.436311 0.2039
vt 0.436311 0.181178
vt 0.489304 0.181178
vt 0.489304 0.2039
vt 0.129101 0.001658
vt 0.145352 0
vt 0.146435 0.069565
vt 0.169091 0.047379
vt 0.601204 0.927495
vt 0.584287 0.925624
vt 0.601204 0.840576
vt 0.575836 0.848753
vt 0.172464 0.164677
vt 0.133252 0.168678
vt 0.22365 0.8807
vt 0.243747 0.872632
vt 0.231635 0.953736
vt 0.243747 0.952163
vt 0.008491 0.79464
vt 0.024353 0.820031
vt 0 0.880554
vt 0.024353 0.898742
vt 0.314757 0.387137
vt 0.314757 0.35648
vt 0.323084 0.35648
vt 0.323084 0.387137
vt 0.829667 0.543933
vt 0.794497 0.554989
vt 0.799711 0.4782
vt 0.829667 0.466637
vt 0.083466 0.56198
vt 0.083466 0.588988
vt 0.009207 0.543389
vt 0.01381 0.574208
vt 0.125608 0.246746
vt 0.166617 0.242561
vt 0.172464 0.313528
vt 0.148283 0.315995
vt 0.200558 0.590708
vt 0.200558 0.617716
vt 0.117092 0.643928
vt 0.121696 0.613109
vt 0.407563 0.087105
vt 0.353725 0.087105
vt 0.361871 0
vt 0.407563 0
vt 0.745473 0.304412
vt 0.745176 0.27154
vt 0.775019 0.268533
vt 0.774722 0.304412
vt 0.390619 0.336214
vt 0.436311 0.336214
vt 0.436311 0.366871
vt 0.390619 0.366871
vt 0.274089 0.853036
vt 0.303481 0.849969
vt 0.274811 0.923307
vt 0.297814 0.923307
vt 0.45385 0.773474
vt 0.404471 0.770779
vt 0.45385 0.698471
vt 0.391242 0.698423
vt 0.5167 0.756444
vt 0.533719 0.757176
vt 0.533719 0.865683
vt 0.509947 0.853608
vt 0.382473 0.475077
vt 0.328635 0.475077
vt 0.336781 0.366871
vt 0.382473 0.366871
vt 0.436311 0.397337
vt 0.436311 0.374615
vt 0.489304 0.374615
vt 0.489304 0.397337
vt 0.436311 0.311979
vt 0.436311 0.249343
vt 0.489304 0.249343
vt 0.489304 0.311979
vt 0.868114 0.821129
vt 0.845407 0.821129
vt 0.868143 0.703978
vt 0.845378 0.70404
vt 0 0.419116
vt 0 0.35648
vt 0.117092 0.35648
vt 0.117092 0.419116
vt 0.538261 0.293786
vt 0.538261 0.298629
vt 0.489304 0.226621
vt 0.538261 0.311979
vt 0.538261 0.325329
vt 0.980774 0.654332
vt 0.977415 0.65782
vt 0.967808 0.580129
vt 0.980774 0.568487
vt 0.096678 0.707366
vt 0.107044 0.715772
vt 0.107044 0.794054
vt 0.064501 0.747034
vt 0.823493 0.691398
vt 0.806133 0.6899
vt 0.823493 0.585909
vt 0.793886 0.5856
vt 0.747335 0.41508
vt 0.683924 0.41508
vt 0.684005 0.310063
vt 0.733199 0.304668
vt 0.171137 0.795009
vt 0.171137 0.790166
vt 0.184942 0.790166
vt 0.184942 0.795009
vt 0.171137 0.776816
vt 0.171137 0.763465
vt 0.184942 0.763465
vt 0.184942 0.776816
vt 0.437166 0.819546
vt 0.437166 0.814703
vt 0.450971 0.814703
vt 0.450971 0.819546
vt 0.437166 0.801353
vt 0.437166 0.788003
vt 0.450971 0.788003
vt 0.450971 0.801353
vt 0.716562 0.950005
vt 0.716562 0.945163
vt 0.748266 0.945163
vt 0.748266 0.950005
vt 0.716562 0.931812
vt 0.716562 0.918462
vt 0.748266 0.918462
vt 0.748266 0.931812
vt 0.149185 0.714625
vt 0.149185 0.709782
vt 0.172008 0.709782
vt 0.172008 0.714625
vt 0.149185 0.696432
vt 0.149185 0.683082
vt 0.172008 0.683082
vt 0.172008 0.696432
vt 0.716269 0.898468
vt 0.716269 0.903311
vt 0.694032 0.903311
vt 0.694032 0.898468
vt 0.716269 0.916661
vt 0.716269 0.930012
vt 0.694032 0.930012
vt 0.694032 0.916661
vt 0.185209 0.709783
vt 0.185209 0.714625
vt 0.185209 0.683082
vt 0.185209 0.696432
vt 0.941756 0.954482
vt 0.912221 0.954482
vt 0.912221 0.949639
vt 0.941756 0.949639
vt 0.941756 0.936289
vt 0.912221 0.936289
vt 0.912221 0.922938
vt 0.941756 0.922938
vt 0.984695 0.009686
vt 0.984695 0.014529
vt 0.9591 0.014529
vt 0.9591 0.009686
vt 0.984695 0.027879
vt 0.984695 0.041229
vt 0.9591 0.041229
vt 0.9591 0.027879
vt 0.994456 0.201846
vt 0.979455 0.201846
vt 0.979455 0.197003
vt 0.994456 0.197003
vt 0.994456 0.183653
vt 0.979455 0.183653
vt 0.979455 0.170303
vt 0.994456 0.170303
vt 0.877541 0.905972
vt 0.894485 0.920682
vt 0.868143 0.947807
vt 0.894485 0.968913
vt 0.314758 0.503731
vt 0.314758 0.548035
vt 0.266885 0.536692
vt 0.266885 0.508951
vt 0.100285 0.941162
vt 0.107334 0.910812
vt 0.115575 0.939403
vt 0.115575 0.909694
vt 0.171869 0.343138
vt 0.151267 0.34524
vt 0.947169 0.519999
vt 0.947169 0.546681
vt 0.939589 0.550123
vt 0.934109 0.528363
vt 0.509208 0.993314
vt 0.50212 0.962971
vt 0.531582 0.965986
vt 0.531582 0.995697
vt 0.108766 0.688232
vt 0.108766 0.643928
vt 0.117092 0.688232
vt 0.328554 0.728331
vt 0.328554 0.755012
vt 0.310015 0.715045
vt 0.304536 0.736805
vt 0.403914 0.773475
vt 0.437166 0.779257
vt 0.437166 0.856842
vt 0.40637 0.855062
vt 0.191989 0.508951
vt 0.191989 0.536692
vt 0.117092 0.516507
vt 0.117092 0.498599
vt 0.065387 0.820318
vt 0.064501 0.797897
vt 0.104798 0.794054
vt 0.104797 0.827809
vt 0.61254 0.424705
vt 0.648497 0.423944
vt 0.649512 0.464379
vt 0.611704 0.464379
vt 0.652561 0.621673
vt 0.652561 0.65233
vt 0.604688 0.658192
vt 0.604688 0.624306
vt 0.664394 0.904308
vt 0.69402 0.902379
vt 0.652561 0.948711
vt 0.69402 0.945629
vt 0.342596 0.841722
vt 0.361674 0.861038
vt 0.328635 0.883102
vt 0.361674 0.908734
vt 0.443942 0.971917
vt 0.423409 0.969213
vt 0.411372 0.927655
vt 0.443942 0.931946
vt 0.650015 0.256094
vt 0.640598 0.276048
vt 0.611704 0.243459
vt 0.618265 0.229556
vt 0.604687 0.947373
vt 0.638721 0.949995
vt 0.613828 0.983989
vt 0.638721 0.986296
vt 0.845378 0.789719
vt 0.812513 0.797407
vt 0.845378 0.703978
vt 0.814733 0.707508
vt 0.757559 0.471837
vt 0.794497 0.466637
vt 0.794497 0.556338
vt 0.756937 0.55953
vt 0.266885 0.502806
vt 0.191988 0.516438
vt 0.191988 0.489865
vt 0.201195 0.538414
vt 0.242746 0.536692
vt 0.242746 0.625675
vt 0.200558 0.623446
vt 0.789476 0.268533
vt 0.747082 0.258718
vt 0.789476 0.18742
vt 0.745176 0.181178
vt 0.277317 0.846087
vt 0.244697 0.849969
vt 0.253121 0.761384
vt 0.277317 0.758504
vt 0.770959 0.800024
vt 0.770959 0.822574
vt 0.758534 0.796874
vt 0.758534 0.81785
vt 0.589154 0.401191
vt 0.611704 0.401191
vt 0.611704 0.413615
vt 0.590729 0.413615
vt 0.571475 0.578052
vt 0.571475 0.595245
vt 0.538261 0.580589
vt 0.538261 0.567603
vt 0.716562 0.841671
vt 0.753519 0.848218
vt 0.732718 0.892156
vt 0.753519 0.903934
vt 0.771281 0.796531
vt 0.812513 0.801719
vt 0.790913 0.846233
vt 0.812513 0.857271
vt 0.999753 0.426994
vt 0.986473 0.386211
vt 0.999753 0.385613
vt 0.588079 0.102751
vt 0.588079 0.122249
vt 0.554866 0.104725
vt 0.554866 0.092301
vt 0.216879 0.965567
vt 0.185209 0.972778
vt 0.216879 0.92569
vt 0.193214 0.929976
vt 0.554866 0.062636
vt 0.554866 0.125272
vt 0.4702 0.116474
vt 0.4702 0.062636
vt 0.326263 0.853599
vt 0.309717 0.934588
vt 0.326263 0.938719
vt 0.407563 0.181178
vt 0.344927 0.181178
vt 0.16194 0.810902
vt 0.184518 0.813066
vt 0.184518 0.907526
vt 0.158824 0.899479
vt 0.927412 0.238875
vt 0.904756 0.238875
vt 0.929945 0.155774
vt 0.903519 0.160818
vt 0.53815 0.568062
vt 0.508536 0.557342
vt 0.53815 0.485546
vt 0.502933 0.475077
vt 0.328554 0.840064
vt 0.316848 0.84427
vt 0.312788 0.761507
vt 0.344927 0.191803
vt 0.305715 0.187802
vt 0.298072 0.109735
vt 0.33908 0.113918
vt 0.250635 0.182182
vt 0.195555 0.176562
vt 0.172464 0.096918
vt 0.235268 0.103327
vt 0.795078 0.191898
vt 0.824693 0.181178
vt 0.824693 0.263694
vt 0.789476 0.274163
vt 0.078172 0.174297
vt 0.062804 0.253154
vt 0.588079 0.011165
vt 0.588079 0.028357
vt 0.554866 0.038807
vt 0.554866 0.025821
vt 0.588079 0.065554
vt 0.554866 0.065554
vt 0.273591 0.576655
vt 0.283008 0.596609
vt 0.251258 0.623148
vt 0.244697 0.609245
vt 0.298882 0.630248
vt 0.314757 0.663887
vt 0.274088 0.671525
vt 0.262673 0.647336
vt 0.571475 0.48416
vt 0.571475 0.503659
vt 0.538261 0.514109
vt 0.538261 0.501684
vt 0.571475 0.540856
vt 0.538261 0.540856
vt 0.589154 0.323907
vt 0.611704 0.33471
vt 0.611704 0.347697
vt 0.589154 0.347697
vt 0.589154 0.374444
vt 0.611704 0.374444
vt 0.566603 0.323907
vt 0.544053 0.315492
vt 0.544053 0.300118
vt 0.566603 0.300118
vt 0.566603 0.273371
vt 0.544053 0.273371
vt 0.544053 0.246624
vt 0.566603 0.246624
vt 0.793886 0.678493
vt 0.756948 0.673293
vt 0.793886 0.588792
vt 0.756325 0.5856
vt 0.753352 0.174767
vt 0.693512 0.174767
vt 0.751961 0.087798
vt 0.703767 0.087789
vt 0.266885 0.35648
vt 0.266885 0.38422
vt 0.191988 0.394572
vt 0.191988 0.376665
vt 0.266885 0.443513
vt 0.191988 0.442219
vt 0.309937 0.762387
vt 0.309937 0.849969
vt 0.285742 0.847089
vt 0.753346 0.086981
vt 0.693512 0.087789
vt 0.753346 0
vt 0.705157 0.000638
vt 0.979116 0.522537
vt 1 0.523414
vt 0.986721 0.564196
vt 1 0.564794
vt 0.66589 0.222455
vt 0.629681 0.205367
vt 0.553127 0.140595
vt 0.589083 0.141356
vt 0.552111 0.18103
vt 0.589919 0.18103
vt 0.117092 0.87006
vt 0.119225 0.814861
vt 0.158824 0.870626
vt 0.158824 0.810902
vt 0.652561 0.466637
vt 0.652561 0.510941
vt 0.604688 0.50572
vt 0.604688 0.47798
vt 0.652561 0.566307
vt 0.604688 0.565013
vt 0.956903 0.660524
vt 0.977436 0.65782
vt 0.977436 0.697791
vt 0.944866 0.702082
vt 0.534218 0.872375
vt 0.53632 0.817176
vt 0.575835 0.875511
vt 0.575835 0.815787
vt 0.191989 0.35648
vt 0.191989 0.390366
vt 0.117092 0.403306
vt 0.117092 0.376734
vt 0.191989 0.449659
vt 0.117092 0.450953
vt 0.108766 0.829621
vt 0.108766 0.798964
vt 0.117092 0.798964
vt 0.117092 0.829621
vt 0.108766 0.743598
vt 0.117092 0.743598
vt 0.933362 0.241882
vt 0.933064 0.274754
vt 0.903519 0.238875
vt 0.903816 0.274754
vt 0.093203 0.321615
vt 0.096187 0.35086
vt 0.314758 0.362342
vt 0.314758 0.392999
vt 0.266885 0.390366
vt 0.314758 0.448365
vt 0.266885 0.449659
vt 0.977773 0.391984
vt 0.977773 0.378634
vt 0.978868 0.378634
vt 0.978868 0.391984
vt 0.133139 0.696432
vt 0.133139 0.683082
vt 0.977773 0.410177
vt 0.977773 0.405334
vt 0.978868 0.405334
vt 0.978868 0.410177
vt 0.133139 0.714625
vt 0.133139 0.709782
vt 0.390619 0.181178
vt 0.436311 0.225483
vt 0.390619 0.225483
vt 0.390619 0.280849
vt 0.436311 0.280849
vt 0.344927 0.042953
vt 0.320746 0.040485
vt 0.32373 0.01124
vt 0.344333 0.013342
vt 0.265666 0.034865
vt 0.210586 0.029245
vt 0.21357 0
vt 0.26865 0.00562
vt 0.79554 0.087788
vt 0.830709 0.098844
vt 0.800753 0.164577
vt 0.830709 0.176141
vt 0.314757 0.542173
vt 0.314757 0.497869
vt 0.323084 0.497869
vt 0.323084 0.542173
vt 0.314757 0.442503
vt 0.323084 0.442503
vt 0.341554 0.309101
vt 0.318899 0.286916
vt 0.273092 0.272305
vt 0.227285 0.257694
vt 0.048706 0.873351
vt 0.032844 0.898742
vt 0.024353 0.812828
vt 0.048706 0.79464
vt 0.100628 0.084175
vt 0.890613 0.814682
vt 0.872158 0.816853
vt 0.890613 0.703978
vt 0.868143 0.726924
vt 0.092233 0.996354
vt 0.097555 0.955781
vt 0.113583 0.957229
vt 0.11428 0.996354
vt 0.317815 0.35648
vt 0.301564 0.354822
vt 0.956421 0.155774
vt 0.956421 0.231108
vt 0.942508 0.156583
vt 0.929945 0.217344
vt 0.3888 0.585809
vt 0.389896 0.585809
vt 0.399448 0.475077
vt 0.373849 0.585809
vt 0.357802 0.585809
vt 0.364042 0.475077
vt 0.980774 0.623403
vt 0.980774 0.600581
vt 0.994578 0.600581
vt 0.994578 0.623403
vt 0.980774 0.584534
vt 0.994578 0.568487
vt 0.994578 0.584534
vt 0.325052 0.370285
vt 0.325052 0.35648
vt 0.982064 0.742846
vt 0.995869 0.742846
vt 0.881346 0.472312
vt 0.903083 0.466637
vt 0.889357 0.569188
vt 0.903083 0.581075
vt 0.457719 0.585809
vt 0.467526 0.475077
vt 0.977773 0.364105
vt 0.966384 0.33948
vt 0.966819 0.33948
vt 0.978868 0.364105
vt 0.133139 0.668553
vt 0.139163 0.643928
vt 0.376099 0.693111
vt 0.368994 0.667261
vt 0.353521 0.671514
vt 0.366436 0.695767
vt 0.356772 0.698424
vt 0.338048 0.675767
vt 0.324068 0.383898
vt 0.324068 0.35648
vt 0.325052 0.356962
vt 0.325052 0.38438
vt 0.965164 0.290919
vt 0.98979 0.296946
vt 0.75484 0.919945
vt 0.766399 0.946682
vt 0.753745 0.919952
vt 0.765964 0.946684
vt 0.427745 0.612719
vt 0.44066 0.588465
vt 0.323084 0.38438
vt 0.323084 0.356962
vt 0.964665 0.903864
vt 0.98929 0.897837
vt 0.966384 0.444489
vt 0.977773 0.419863
vt 0.978868 0.419863
vt 0.966819 0.444489
vt 0.139163 0.748937
vt 0.133139 0.724311
vt 0.977773 0.368948
vt 0.978868 0.368948
vt 0.133139 0.673396
vt 0.064501 0.707952
vt 0 0.707952
vt 0.026064 0.58951
vt 0.060942 0.588988
vt 0.716562 0.702423
vt 0.652561 0.702423
vt 0.712214 0.586566
vt 0.685412 0.5856
vt 0.904337 0.968257
vt 0.894486 0.910425
vt 0.910316 0.964422
vt 0.910316 0.905971
vt 0.597553 0.180863
vt 0.589919 0.140595
vt 0.619703 0.180018
vt 0.619703 0.14082
vt 0.984316 0.653454
vt 0.994744 0.654202
vt 0.994744 0.624678
vt 0.828572 0.302261
vt 0.831923 0.272194
vt 0.838983 0.27196
vt 0.838983 0.301479
vt 0.794657 0.963235
vt 0.804508 0.905402
vt 0.810487 0.909238
vt 0.810487 0.967689
vt 0.560694 0.87551
vt 0.560694 0.950845
vt 0.546782 0.950036
vt 0.534218 0.889275
vt 0.031397 0.972326
vt 0.029369 0.985905
vt 0.001096 0.967293
vt 0.002192 0.985905
vt 0.654589 0.972356
vt 0.652561 0.958777
vt 0.685986 0.948711
vt 0.68489 0.967323
vt 0.104264 0.704387
vt 0.064501 0.707366
vt 0.104264 0.588988
vt 0.085871 0.590308
vt 0.647814 0.423944
vt 0.611704 0.423944
vt 0.634493 0.304668
vt 0.648223 0.304668
vt 0.717062 0.5856
vt 0.652561 0.5856
vt 0.690997 0.467158
vt 0.656119 0.466637
vt 0.602262 0.723233
vt 0.538261 0.723233
vt 0.54261 0.607376
vt 0.569411 0.60641
vt 0.756937 0.581873
vt 0.717062 0.581873
vt 0.748692 0.46677
vt 0.730252 0.466637
vt 0.657403 0.119276
vt 0.621293 0.119276
vt 0.643264 0
vt 0.656994 0
vt 0.884631 0
vt 0.884631 0.090005
vt 0.875902 0.006091
vt 0.855717 0.086118
vt 0.443941 0.892249
vt 0.443941 0.927655
vt 0.41486 0.924663
vt 0.41486 0.892195
vt 0.368763 0.909721
vt 0.368763 0.957797
vt 0.359245 0.952777
vt 0.357327 0.908734
vt 0.943443 0.372269
vt 0.943443 0.442342
vt 0.930228 0.438437
vt 0.914491 0.376138
vt 0.942255 0.274872
vt 0.942255 0.344945
vt 0.92904 0.278777
vt 0.913303 0.341076
vt 0.935172 0.118508
vt 0.935172 0.153915
vt 0.906091 0.15103
vt 0.906091 0.118562
vt 0.881346 0.466637
vt 0.881346 0.556642
vt 0.872618 0.550551
vt 0.852432 0.470524
vt 0.741602 0.415079
vt 0.741602 0.463157
vt 0.730159 0.416052
vt 0.728123 0.460092
vt 0.898369 0.462954
vt 0.888746 0.380966
vt 0.914491 0.450469
vt 0.914491 0.372269
vt 0.839649 0.926499
vt 0.839649 0.958968
vt 0.812513 0.957471
vt 0.812513 0.926472
vt 0.999679 0.341524
vt 0.999679 0.385613
vt 0.979699 0.381552
vt 0.978868 0.33948
vt 0.9591 0.005647
vt 0.9591 0.069915
vt 0.939609 0.060467
vt 0.932517 0
vt 0.961756 0.083101
vt 0.961756 0.147369
vt 0.942265 0.092549
vt 0.935172 0.153016
vt 0.968891 0.849322
vt 0.968891 0.88179
vt 0.941756 0.880348
vt 0.941756 0.849348
vt 0.890613 0.785965
vt 0.900236 0.703978
vt 0.916358 0.716462
vt 0.916358 0.794663
vt 0.963414 0.955264
vt 0.963414 0.999354
vt 0.942603 0.957304
vt 0.941756 0.999376
vt 0.959273 0.766804
vt 0.95903 0.70879
vt 0.982064 0.703978
vt 0.982064 0.767732
vt 0.944866 0.62183
vt 0.944866 0.5923
vt 0.967808 0.5856
vt 0.967808 0.62171
vt 0.968891 0.86495
vt 0.969047 0.825686
vt 0.991967 0.856809
vt 0.991967 0.816853
vt 0.866345 0.91269
vt 0.86629 0.974753
vt 0.841901 0.910247
vt 0.842474 0.974753
vt 0.943443 0.408259
vt 0.943443 0.378729
vt 0.966385 0.372269
vt 0.966385 0.408379
vt 0.68632 0.987975
vt 0.709414 0.956107
vt 0.709414 0.996064
vt 0.039186 0.963248
vt 0.039131 0.901185
vt 0.063575 0.898742
vt 0.063001 0.963248
vt 0.956421 0.214717
vt 0.956663 0.156703
vt 0.979455 0.219529
vt 0.812513 0.905402
vt 0.771782 0.898538
vt 0.768314 0.861587
vt 0.282587 0.963562
vt 0.244697 0.963562
vt 0.27264 0.927562
vt 0.252818 0.923306
vt 0.621292 0.065554
vt 0.621292 0.1132
vt 0.621292 0
vt 0.621292 0.017908
vt 0.621292 0.139773
vt 0.575836 0.784935
vt 0.575836 0.815787
vt 0.538316 0.784022
vt 0.538261 0.812793
vt 0.064501 0.955781
vt 0.065284 0.911052
vt 0.100285 0.909694
vt 0.100285 0.943819
vt 0.681765 0.282632
vt 0.671366 0.304668
vt 0.604688 0.540856
vt 0.604688 0.588502
vt 0.604688 0.466637
vt 0.604688 0.493209
vt 0.728123 0.415079
vt 0.728123 0.46321
vt 0.687391 0.456346
vt 0.683924 0.419395
vt 0.304358 0.548035
vt 0.314757 0.570071
vt 0.03913 0.906438
vt 0.03913 0.948681
vt 0.000921 0.931213
vt 0 0.898742
vt 0.154982 0.96394
vt 0.117092 0.96394
vt 0.127039 0.927939
vt 0.146861 0.923684
vt 0.812513 0.76568
vt 0.812513 0.796531
vt 0.775102 0.793284
vt 0.775047 0.764513
vt 0.604688 0.60641
vt 0.876758 0.559099
vt 0.876758 0.584207
vt 0.853025 0.581114
vt 0.852433 0.556642
vt 0.913303 0.344945
vt 0.938385 0.346093
vt 0.913968 0.369937
vt 0.938385 0.371678
vt 0.445397 0.916885
vt 0.474164 0.917058
vt 0.449062 0.972374
vt 0.474164 0.972785
vt 0.569753 0.2342
vt 0.548777 0.2342
vt 0.538261 0.181178
vt 0.562742 0.181178
vt 0.689517 0.895832
vt 0.65256 0.902379
vt 0.668716 0.851893
vt 0.689517 0.840116
vt 0.587223 0.466637
vt 0.611704 0.466637
vt 0.399154 0.960722
vt 0.370661 0.96469
vt 0.374321 0.908666
vt 0.399154 0.904973
vt 0.662525 0.174828
vt 0.621293 0.180016
vt 0.640924 0.130314
vt 0.662525 0.119276
vt 0.611704 0.2342
vt 0.590729 0.2342
vt 0.587223 0.181179
vt 0.611704 0.181179
vt 0.691017 0.123243
vt 0.666185 0.1753
vt 0.691017 0.178993
vt 0.328635 0.908734
vt 0.357327 0.910809
vt 0.332306 0.964362
vt 0.357327 0.966419
vt 0.142173 0.989524
vt 0.117092 0.990671
vt 0.117756 0.96568
vt 0.142173 0.963939
vt 0.819431 0.556802
vt 0.819431 0.58191
vt 0.795105 0.579461
vt 0.812513 0.703977
vt 0.812513 0.734829
vt 0.774993 0.735742
vt 0.774939 0.706971
vt 0.474947 0.961613
vt 0.474164 0.916885
vt 0.509948 0.962971
vt 0.509948 0.928846
vt 0.831246 0.380152
vt 0.791634 0.385794
vt 0.800282 0.346854
vt 0.831246 0.34241
vt 0.133139 0.719468
vt 0.149185 0.719468
vt 0.977773 0.41502
vt 0.978868 0.41502
vt 0.611704 0.273371
vt 0.589154 0.273371
vt 0.589154 0.246624
vt 0.611704 0.246624
vt 0.611704 0.313104
vt 0.589154 0.300118
vt 0.611704 0.300118
vt 0.838208 0.891866
vt 0.81563 0.89403
vt 0.838208 0.797406
vt 0.812513 0.805453
vt 0.845482 0.82169
vt 0.868143 0.821129
vt 0.868143 0.904272
vt 0.965816 0.063758
vt 0.977522 0.067964
vt 0.977522 0.153016
vt 0.961756 0.146521
vt 0.919755 0.901472
vt 0.941756 0.823357
vt 0.925992 0.816853
vt 0.683546 0.460245
vt 0.649512 0.462867
vt 0.658653 0.426251
vt 0.683546 0.423944
vt 0.80893 0.307914
vt 0.831246 0.304668
vt 0.770959 0.777474
vt 0.758534 0.775899
vt 0.749241 0.314483
vt 0.791635 0.304668
vt 0.791635 0.385781
vt 0.747335 0.392023
vt 0.754341 0.005022
vt 0.79334 0
vt 0.79334 0.085036
vt 0.753346 0.086132
vt 0.509947 0.897569
vt 0.490869 0.916884
vt 0.476908 0.875505
vt 0.509947 0.849874
vt 0.195665 0.881784
vt 0.22365 0.872632
vt 0.22365 0.918426
vt 0.185209 0.925689
vt 0.477082 0.756445
vt 0.509947 0.764132
vt 0.479302 0.846344
vt 0.824692 0.181178
vt 0.857755 0.187963
vt 0.857755 0.269588
vt 0.827025 0.266888
vt 0.235916 0.858747
vt 0.228867 0.828397
vt 0.244157 0.830156
vt 0.244157 0.859865
vt 0.251776 0.993907
vt 0.26707 0.965948
vt 0.26707 0.995658
vt 0.947169 0.466637
vt 0.947169 0.493318
vt 0.92863 0.506603
vt 0.923151 0.484843
vt 0.80138 0.45569
vt 0.802266 0.433269
vt 0.841678 0.459533
vt 0.841677 0.425778
vt 0.803153 0.410847
vt 0.841678 0.392023
vt 0.941756 0.964167
vt 0.912221 0.964167
vt 0.912221 0.959325
vt 0.941756 0.959325
vt 0.172008 0.719468
vt 0.185209 0.719468
vt 0.716269 0.893625
vt 0.694032 0.893625
vt 0.694032 0.888783
vt 0.437166 0.829232
vt 0.437166 0.824389
vt 0.450971 0.824389
vt 0.450971 0.829232
vt 0.903519 0.269588
vt 0.883749 0.267328
vt 0.882059 0.155774
vt 0.903519 0.158903
vt 0.922866 0.699282
vt 0.902797 0.691066
vt 0.904836 0.5856
vt 0.922866 0.587698
vt 0.064501 0.891335
vt 0.062736 0.895676
vt 0.050148 0.807947
vt 0.064501 0.794054
vt 0.529838 0.954315
vt 0.527342 0.958385
vt 0.509947 0.874325
vt 0.529838 0.865683
vt 0.902837 0.818725
vt 0.919755 0.816853
vt 0.919755 0.903772
vt 0.894386 0.895595
vt 0.459592 0.816195
vt 0.476615 0.815767
vt 0.476615 0.913164
vt 0.452058 0.902789
vt 0.062641 0.789056
vt 0.042543 0.780987
vt 0.050528 0.707952
vt 0.062641 0.709525
vt 0.964665 0.955265
vt 0.94674 0.953391
vt 0.964665 0.88179
vt 0.941756 0.883308
vt 0.083466 0.507964
vt 0.083466 0.534972
vt 0 0.481752
vt 0.004603 0.512571
vt 0.436311 0.226621
vt 0.864413 0.392023
vt 0.841706 0.392023
vt 0.841677 0.274872
vt 0.864442 0.274934
vt 0.855688 0.117236
vt 0.832981 0.117236
vt 0.832952 0
vt 0.855717 8.5e-05
vt 0.538261 0.330172
vt 0.171137 0.758622
vt 0.184942 0.758622
vt 0.716562 0.913619
vt 0.748266 0.913619
vt 0.984695 0.046072
vt 0.9591 0.046072
vt 0.979455 0.16546
vt 0.994456 0.16546
vt 0.975936 0.522364
vt 0.947169 0.522537
vt 0.950834 0.467047
vt 0.975936 0.466637
vt 0.184518 0.963137
vt 0.155825 0.965212
vt 0.159497 0.909583
vt 0.548777 0.413615
vt 0.569753 0.413615
vt 0.538261 0.466637
vt 0.562742 0.466637
vt 0.847818 0.67401
vt 0.847818 0.699117
vt 0.824086 0.677103
vt 0.823493 0.701575
vt 0.828572 0.275341
vt 0.828572 0.300448
vt 0.804246 0.27779
vt 0.803638 0.302261
vt 0.643818 0.897434
vt 0.643818 0.939677
vt 0.605609 0.914902
vt 0.604688 0.947374
vt 0.832952 0.005642
vt 0.801988 0.038939
vt 0.832952 0.043384
vt 0.575836 0.723233
vt 0.575836 0.754084
vt 0.538424 0.72648
vt 0.53837 0.755251
vt 0.133139 0.678239
vt 0.149185 0.678239
vt 0.977773 0.373791
vt 0.978868 0.373791
vt 0.544053 0.374444
vt 0.566603 0.374444
vt 0.566603 0.401191
vt 0.544053 0.401191
vt 0.544053 0.332323
vt 0.566603 0.347697
vt 0.544053 0.347697
vt 0.93914 0.789098
vt 0.916358 0.792727
vt 0.922594 0.708109
vt 0.93914 0.703978
vt 0.922866 0.592538
vt 0.944867 0.5856
vt 0.944867 0.670652
vt 0.929103 0.677156
vt 0.931279 0.083101
vt 0.908624 0.083101
vt 0.932517 0.005044
vt 0.894386 0.905972
vt 0.871724 0.90541
vt 0.868143 0.816854
vt 0.894386 0.822828
vt 0.116689 0.588988
vt 0.116689 0.611539
vt 0.104265 0.614688
vt 0.104264 0.593713
vt 0.116689 0.634089
vt 0.104265 0.635664
vt 0.79554 0.176772
vt 0.753989 0.17505
vt 0.79554 0.087789
vt 0.753352 0.090016
vt 0.225203 0.812907
vt 0.186204 0.807885
vt 0.225203 0.727871
vt 0.185209 0.726775
vt 0.403914 0.85106
vt 0.370661 0.856842
vt 0.373118 0.775254
vt 0.856555 0.667224
vt 0.823493 0.67401
vt 0.856555 0.5856
vt 0.825826 0.5883
vt 0.569535 0.927495
vt 0.601204 0.934707
vt 0.601204 0.974584
vt 0.577539 0.970296
vt 0.810636 0.07788
vt 0.832952 0.081125
vt 0.874412 0.163568
vt 0.844785 0.161639
vt 0.832952 0.117236
vt 0.874412 0.120318
vt 0.155533 0.923684
vt 0.127548 0.914532
vt 0.155533 0.87789
vt 0.117092 0.870626
vt 0.794657 0.953633
vt 0.777713 0.968344
vt 0.768315 0.926508
vt 0.794657 0.905402
vt 0.066274 0.84274
vt 0.104798 0.861563
vt 0.328554 0.674968
vt 0.328554 0.701649
vt 0.320973 0.671525
vt 0.315494 0.693285
vt 0.034113 0.995974
vt 0.041201 0.96563
vt 0.063575 0.992959
vt 0.063575 0.963248
vt 0.274149 0.965313
vt 0.289443 0.993272
vt 0.289443 0.963562
vt 0.994456 0.211532
vt 0.979455 0.211532
vt 0.979455 0.206689
vt 0.994456 0.206689
vt 0.984695 0
vt 0.984695 0.004843
vt 0.9591 0.004843
vt 0.9591 0
vt 0.716562 0.959691
vt 0.716562 0.954848
vt 0.748266 0.954848
vt 0.748266 0.959691
vt 0.171137 0.804694
vt 0.171137 0.799851
vt 0.184942 0.799851
vt 0.184942 0.804694
vt 0.538261 0.2841
vt 0.538261 0.288943
vt 0.598572 0.840577
vt 0.575865 0.840577
vt 0.598601 0.723233
vt 0.575836 0.72334
vt 0.852403 0.583873
vt 0.829696 0.583873
vt 0.852432 0.466637
vt 0.829667 0.466722
vt 0.436311 0.420058
vt 0.200558 0.536692
vt 0.200558 0.5637
vt 0.126299 0.582291
vt 0.130902 0.551472
vt 0.273367 0.923307
vt 0.250363 0.923307
vt 0.94724 0.276745
vt 0.965164 0.274872
vt 0.965164 0.348346
vt 0.942255 0.346828
vt 0.880327 0.694107
vt 0.863309 0.694838
vt 0.880327 0.585599
vt 0.856555 0.597674
vt 0.913303 0.372269
vt 0.89628 0.371841
vt 0.913303 0.274872
vt 0.888746 0.285247
vt 0.987129 0.063758
vt 0.990488 0.067245
vt 0.977522 0.141448
vt 0.990488 0.15309
vt 0.956535 0.703977
vt 0.95903 0.708047
vt 0.93914 0.788038
vt 0.95903 0.796679
vt 0.095712 0.48325
vt 0.113073 0.481752
vt 0.113073 0.587242
vt 0.083466 0.587551
vt 0.903083 0.474852
vt 0.923151 0.466637
vt 0.905122 0.580318
vt 0.923151 0.578221
vt 0.437166 0.78316
vt 0.450971 0.78316
vt 0.172008 0.678239
vt 0.716269 0.934855
vt 0.694032 0.934855
vt 0.185209 0.678239
vt 0.912221 0.918095
vt 0.941756 0.918095
vt 0.197942 0.649624
vt 0.244157 0.643928
vt 0.244157 0.719276
vt 0.170133 0.779919
vt 0.171137 0.810902
vt 0.119839 0.780763
vt 0.117092 0.810902
vt 0.694533 0.837108
vt 0.652561 0.840116
vt 0.653968 0.780704
vt 0.694533 0.774344
vt 0.652744 0.720301
vt 0.710937 0.702423
vt 0.710937 0.768559
vt 0.652561 0.774344
vt 0.774939 0.775899
vt 0.716745 0.75802
vt 0.774939 0.709763
vt 0.716562 0.703978
vt 0.748339 0.423006
vt 0.749343 0.392023
vt 0.795885 0.39371
vt 0.798633 0.423849
vt 0.489815 0.750749
vt 0.477082 0.673597
vt 0.536031 0.756444
vt 0.536031 0.681096
vt 0.604687 0.773429
vt 0.646714 0.775538
vt 0.606024 0.836178
vt 0.646714 0.841677
vt 0.644589 0.851363
vt 0.604687 0.851363
vt 0.604687 0.84652
vt 0.644589 0.84652
vt 0.644589 0.856205
vt 0.604687 0.856205
vt 0.552111 0.176187
vt 0.516594 0.176187
vt 0.516594 0.171344
vt 0.552111 0.171344
vt 0.516594 0.18103
vt 0.552111 0.134958
vt 0.516594 0.134958
vt 0.516594 0.130115
vt 0.552111 0.130115
vt 0.552111 0.139801
vt 0.516594 0.139801
vt 0.644589 0.892592
vt 0.604687 0.892592
vt 0.604687 0.887749
vt 0.644589 0.887749
vt 0.644589 0.897434
vt 0.604687 0.897434
vt 0.418332 0.646966
vt 0.433805 0.651219
vt 0.754615 0.884429
vt 0.753519 0.884436
vt 0.344108 0.637267
vt 0.328635 0.64152
vt 0.381587 0.626965
vt 0.359581 0.633014
vt 0.552111 0.153151
vt 0.516594 0.153151
vt 0.516594 0.166501
vt 0.552111 0.166501
vt 0.644589 0.869556
vt 0.604687 0.869556
vt 0.604687 0.882906
vt 0.644589 0.882906
vt 0.314758 0.604422
vt 0.315853 0.604429
vt 0.402859 0.621118
vt 0.455811 0.657267
vt 0.857755 0.226751
vt 0.870275 0.22683
vt 0.604687 0.841677
vt 0.644589 0.841677
vt 0.326263 0.945974
vt 0.326263 0.983499
vt 0.294317 0.938719
vt 0.297507 0.978432
vt 0.516594 0.125272
vt 0.552111 0.125272
vt 0.474239 0.998488
vt 0.474164 0.962971
vt 0.50212 0.998488
vt 0.744518 0.995208
vt 0.716562 0.995209
vt 0.716638 0.959691
vt 0.477083 0.663114
vt 0.876962 0.31763
vt 0.864442 0.31771
vt 0.947169 0.567317
vt 0.95036 0.527605
vt 0.979116 0.560062
vt 0.990049 0.767732
vt 0.990049 0.81344
vt 0.965167 0.781812
vt 0.95903 0.806183
vt 0.888746 0.274872
vt 0.873243 0.300609
vt 0.444498 0.698424
vt 0.473566 0.68924
vt 0.912871 0.967402
vt 0.930972 0.964167
vt 0.912221 0.996239
vt 0.930972 0.992037
vt 0.389413 0.968891
vt 0.389413 0.996761
vt 0.371312 0.993526
vt 0.994341 0.47148
vt 0.975936 0.47148
vt 0.994341 0.466637
vt 0.962557 0.251157
vt 0.956421 0.226785
vt 0.98744 0.219529
vt 0.98744 0.265237
vt 0.470199 0.130115
vt 0.470199 0.125272
vt 0.866555 0.243851
vt 0.882059 0.269588
vt 0.422492 0.692375
vt 0.399342 0.594993
vt 0.370274 0.585809
vt 0.326541 0.64718
vt 0.327637 0.647187
vt 0.470199 0.171344
vt 0.470199 0.166501
vt 0.470199 0.153151
vt 0.470199 0.139801
vt 0.994341 0.512709
vt 0.975936 0.512709
vt 0.975936 0.507866
vt 0.994341 0.507866
vt 0.994341 0.494516
vt 0.975936 0.494516
vt 0.975936 0.481165
vt 0.994341 0.481165
vt 0.348268 0.591858
vt 0.338607 0.594513
vt 0.328946 0.597169
vt 0.766399 0.841671
vt 0.765303 0.841678
vt 0.412831 0.689719
vt 0.470199 0.18103
vt 0.470199 0.176187
vt 0.975936 0.476322
vt 0.994341 0.476322
vt 0.994341 0.522394
vt 0.975936 0.522394
vt 0.975936 0.517551
vt 0.994341 0.517551
vt 0.470199 0.134958
vt 0.344927 0.280849
vt 0.344927 0.336214
vt 0.344927 0.225483
vt 0.470199 0.181178
vt 0.461401 0.087105
vt 0.554866 0
vt 0.4702 0.008798
vt 0.745176 0.291589
vt 0.681765 0.291589
vt 0.745094 0.186573
vt 0.695901 0.181178
vt 0.042543 0.786233
vt 0.032177 0.794639
vt 0.042543 0.707951
vt 0 0.754972
vt 0.117092 0.481752
vt 0.436311 0.475077
vt 0.428165 0.366871
vt 0.341863 0.701119
vt 0.391242 0.773427
vt 0.328635 0.773474
vt 0.344927 0.366871
vt 0.453255 0
vt 0.117092 0.709782
vt 0.117092 0.696432
vt 0.40317 0.687064
vt 0.402859 0.642713
vt 0.412272 0.608466
vt 0.716562 0.775899
vt 0.758534 0.778907
vt 0.71797 0.835311
vt 0.758534 0.841671
vt 0.747335 0.453988
vt 0.80138 0.453988
vt 0.370661 0.839612
vt 0.328635 0.841722
vt 0.329971 0.778973
vt 0.370661 0.773474
vt 0.169129 0.748937
vt 0.122586 0.750623
vt 0.117092 0.678239
vt 0.117092 0.673396
vt 0.117092 0.683082
vt 0.117092 0.719468
vt 0.117092 0.714625
vt 0.117092 0.724311
vt 0.1087 0.861564
vt 0.1087 0.909694
vt 0.067968 0.868428
vt 0.064501 0.905379
vt 0.414861 0.856841
vt 0.414861 0.904972
vt 0.374129 0.863706
vt 0.370662 0.900657
vt 0.96482 0.97597
vt 0.964664 0.936706
vt 0.98774 0.944847
vt 0.98774 0.984803
vt 0.943443 0.437789
vt 0.966385 0.444489
vt 0.534218 0.998197
vt 0.534553 0.958934
vt 0.557647 0.990801
vt 0.557647 0.950845
vt 0.944866 0.65136
vt 0.967808 0.65782
vt 0.998246 0.65782
vt 0.998246 0.701909
vt 0.978266 0.661881
vt 0.977436 0.703953
vt 0.968891 0.816853
vt 0.941756 0.818349
vt 0.243748 0.953758
vt 0.243748 0.997848
vt 0.222936 0.995808
vt 0.222089 0.953736
vt 0.839649 0.894031
vt 0.812513 0.895473
vt 0.41059 0.904973
vt 0.41059 0.953049
vt 0.401071 0.909992
vt 0.399154 0.954036
vt 0.935172 0.083101
vt 0.906091 0.086093
vt 0.574174 0.875511
vt 0.574174 0.923588
vt 0.562731 0.922616
vt 0.560694 0.878576
vt 0.443941 0.856842
vt 0.41486 0.859726
vt 0.693512 0.119276
vt 0.670723 0
vt 0.716562 0.5856
vt 0.756325 0.588579
vt 0.756325 0.703978
vt 0.737932 0.702658
vt 0.683924 0.423944
vt 0.661953 0.304668
vt 0.644562 0.773428
vt 0.604687 0.773428
vt 0.612932 0.658325
vt 0.631372 0.658192
vt 0.656617 0.985935
vt 0.683794 0.985935
vt 0.033425 0.958747
vt 0 0.948681
vt 0.155825 0.996011
vt 0.159368 0.96596
vt 0.169796 0.965212
vt 0.169796 0.994736
vt 0.834598 0.334736
vt 0.841657 0.33497
vt 0.841657 0.305451
vt 0.950087 0.234181
vt 0.955409 0.274754
vt 0.934059 0.235629
vt 0.933362 0.274754
vt 0.117092 0.668553
vt 0.129141 0.748937
vt 0.964665 0.893845
vt 0.98929 0.88179
vt 0.430996 0.585809
vt 0.98979 0.286927
vt 0.129141 0.643928
vt 0.473766 0.585809
vt 0.982064 0.758893
vt 0.995869 0.758893
vt 0.876307 0.154082
vt 0.883941 0.113814
vt 0.906091 0.114659
vt 0.906091 0.153857
vt 0.054822 0.098786
vt 0.023092 0.179917
vt 0 0.259562
vt 0.038123 0.327235
vt 0.041107 0.35648
vt 0.187341 0.868673
vt 0.185208 0.813474
vt 0.22694 0.812907
vt 0.22694 0.872632
vt 0.843779 0.450358
vt 0.841677 0.395159
vt 0.883294 0.392023
vt 0.883294 0.451747
vt 0.681765 0.188816
vt 0.641095 0.181178
vt 0.304536 0.758504
vt 0.244697 0.758504
vt 0.246088 0.671535
vt 0.294281 0.671525
vt 0.477082 0.585809
vt 0.536916 0.586616
vt 0.536916 0.673597
vt 0.488727 0.672959
usemtl ZOMBIE_GEANT
f 1/1/1 2/2/1 3/3/1
f 1/1/1 3/3/1 4/4/1
f 5/5/2 4/6/2 3/7/2
f 5/5/2 3/7/2 6/8/2
f 7/9/3 8/10/3 9/11/3
f 7/9/3 9/11/3 10/12/3
f 11/13/4 12/14/4 13/15/4
f 11/13/4 13/15/4 14/16/4
f 15/17/5 16/18/5 17/19/5
f 15/17/5 17/19/5 18/20/5
f 19/21/6 20/22/6 21/23/6
f 19/21/6 21/23/6 22/24/6
f 10/25/7 9/26/7 23/27/7
f 9/26/7 24/28/7 23/27/7
f 25/29/8 26/30/8 20/31/8
f 25/29/8 20/31/8 19/32/8
f 27/33/9 28/34/9 29/35/9
f 28/34/9 30/36/9 29/35/9
f 31/37/10 11/38/10 14/39/10
f 31/37/10 14/39/10 32/40/10
f 18/41/11 17/42/11 33/43/11
f 17/42/11 34/44/11 33/43/11
f 35/45/12 36/46/12 4/47/12
f 35/45/12 4/47/12 5/48/12
f 16/49/1 37/50/1 34/51/1
f 16/49/1 34/51/1 17/52/1
f 38/53/1 1/1/1 4/4/1
f 38/53/1 4/4/1 36/54/1
f 39/55/13 24/56/13 40/57/13
f 39/55/13 40/57/13 41/58/13
f 42/59/1 43/60/1 1/1/1
f 42/59/1 1/1/1 38/53/1
f 21/61/14 20/62/14 44/63/14
f 20/62/14 45/64/14 44/63/14
f 46/65/1 47/66/1 37/50/1
f 46/65/1 37/50/1 16/49/1
f 48/67/15 49/68/15 50/69/15
f 48/67/15 50/69/15 51/70/15
f 52/71/16 28/72/16 53/73/16
f 52/71/16 53/73/16 54/74/16
f 55/75/17 56/76/17 57/77/17
f 56/76/17 58/78/17 57/77/17
f 59/79/10 60/80/10 28/81/10
f 59/79/10 28/81/10 27/82/10
f 22/83/5 21/84/5 61/85/5
f 21/84/5 44/86/5 61/85/5
f 62/87/5 46/88/5 16/18/5
f 62/87/5 16/18/5 15/17/5
f 49/89/18 63/90/18 64/91/18
f 49/89/18 64/91/18 50/92/18
f 65/93/10 66/94/10 12/95/10
f 65/93/10 12/95/10 11/96/10
f 6/97/3 3/98/3 67/99/3
f 3/98/3 2/100/3 67/99/3
f 68/101/5 69/102/5 7/103/5
f 69/102/5 8/104/5 7/103/5
f 24/105/19 9/106/19 8/107/19
f 24/105/19 8/107/19 40/108/19
f 43/60/1 70/109/1 2/2/1
f 43/60/1 2/2/1 1/1/1
f 71/110/20 72/111/20 73/112/20
f 71/110/20 73/112/20 74/113/20
f 65/114/5 11/115/5 75/116/5
f 65/114/5 75/116/5 76/117/5
f 77/118/5 58/119/5 72/120/5
f 77/118/5 72/120/5 71/121/5
f 51/122/21 50/123/21 78/124/21
f 51/122/21 78/124/21 79/125/21
f 80/126/22 81/127/22 82/128/22
f 81/127/22 83/129/22 82/128/22
f 54/130/23 53/131/23 80/132/23
f 53/131/23 81/133/23 80/132/23
f 76/134/24 75/135/24 84/136/24
f 76/134/24 84/136/24 85/137/24
f 79/138/25 78/139/25 86/140/25
f 79/138/25 86/140/25 87/141/25
f 88/142/26 89/143/26 90/144/26
f 88/142/26 90/144/26 91/145/26
f 85/146/27 84/147/27 92/148/27
f 85/146/27 92/148/27 93/149/27
f 87/150/28 86/151/28 89/152/28
f 87/150/28 89/152/28 88/153/28
f 74/154/3 73/155/3 94/156/3
f 73/155/3 95/157/3 94/156/3
f 96/158/29 97/159/29 98/160/29
f 97/159/29 99/161/29 98/160/29
f 94/156/3 95/157/3 100/162/3
f 94/156/3 100/162/3 101/163/3
f 82/164/30 83/165/30 102/166/30
f 83/165/30 103/167/30 102/166/30
f 93/168/31 92/169/31 104/170/31
f 92/169/31 105/171/31 104/170/31
f 106/172/5 107/173/5 108/174/5
f 106/172/5 108/174/5 109/175/5
f 110/176/32 111/177/32 112/178/32
f 110/176/32 112/178/32 113/179/32
f 114/180/33 115/181/33 116/182/33
f 115/181/33 117/183/33 116/182/33
f 118/184/3 119/185/3 120/186/3
f 118/184/3 120/186/3 121/187/3
f 122/188/34 123/189/34 124/190/34
f 122/188/34 124/190/34 125/191/34
f 126/192/21 127/193/21 128/194/21
f 126/192/21 128/194/21 129/195/21
f 113/196/35 112/197/35 130/198/35
f 113/196/35 130/198/35 131/199/35
f 132/200/10 133/201/10 134/202/10
f 132/200/10 134/202/10 135/203/10
f 136/204/36 137/205/36 138/206/36
f 137/205/36 139/207/36 138/206/36
f 140/208/37 141/209/37 142/210/37
f 141/209/37 143/211/37 142/210/37
f 144/212/38 145/213/38 134/214/38
f 144/212/38 134/214/38 146/215/38
f 147/216/39 148/217/39 107/218/39
f 147/216/39 107/218/39 135/219/39
f 149/220/28 150/221/28 151/222/28
f 149/220/28 151/222/28 152/223/28
f 153/224/28 154/225/28 155/226/28
f 153/224/28 155/226/28 156/227/28
f 152/228/40 151/229/40 157/230/40
f 151/229/40 158/231/40 157/230/40
f 156/232/41 155/233/41 159/234/41
f 156/232/41 159/234/41 160/235/41
f 161/236/25 162/237/25 150/226/25
f 161/236/25 150/226/25 149/238/25
f 163/239/25 164/240/25 154/222/25
f 163/239/25 154/222/25 153/227/25
f 165/241/42 166/242/42 167/243/42
f 165/241/42 167/243/42 168/244/42
f 169/245/43 170/246/43 171/247/43
f 169/245/43 171/247/43 172/248/43
f 168/249/44 167/250/44 136/251/44
f 167/250/44 137/252/44 136/251/44
f 172/253/45 171/254/45 141/255/45
f 172/253/45 141/255/45 140/256/45
f 173/257/21 174/258/21 162/259/21
f 173/257/21 162/259/21 161/260/21
f 175/261/21 176/262/21 164/263/21
f 175/261/21 164/263/21 163/264/21
f 177/265/16 178/266/16 166/267/16
f 177/265/16 166/267/16 165/268/16
f 179/269/16 180/270/16 170/271/16
f 179/269/16 170/271/16 169/272/16
f 181/273/15 182/274/15 174/275/15
f 181/273/15 174/275/15 173/276/15
f 183/277/15 184/278/15 176/279/15
f 183/277/15 176/279/15 175/280/15
f 185/281/1 186/282/1 187/283/1
f 185/281/1 187/283/1 188/284/1
f 189/285/1 190/286/1 191/287/1
f 189/285/1 191/287/1 192/288/1
f 193/289/13 194/290/13 195/291/13
f 193/289/13 195/291/13 196/292/13
f 197/293/13 198/294/13 199/295/13
f 197/293/13 199/295/13 200/296/13
f 188/284/1 187/283/1 201/297/1
f 188/284/1 201/297/1 202/298/1
f 192/288/1 191/287/1 203/299/1
f 192/288/1 203/299/1 204/300/1
f 205/301/12 202/302/12 201/303/12
f 205/301/12 201/303/12 206/304/12
f 207/305/12 204/306/12 203/307/12
f 207/305/12 203/307/12 208/308/12
f 209/309/10 180/310/10 210/311/10
f 209/309/10 210/311/10 211/312/10
f 179/313/10 178/314/10 212/315/10
f 179/313/10 212/315/10 213/316/10
f 214/317/8 215/318/8 198/319/8
f 214/317/8 198/319/8 216/320/8
f 217/321/8 197/322/8 194/323/8
f 217/321/8 194/323/8 218/324/8
f 219/325/46 220/326/46 221/327/46
f 220/326/46 222/328/46 221/327/46
f 223/329/47 224/330/47 225/331/47
f 223/329/47 225/331/47 226/332/47
f 125/333/48 124/334/48 227/335/48
f 124/334/48 228/336/48 227/335/48
f 121/187/3 120/186/3 229/337/3
f 121/187/3 229/337/3 230/338/3
f 146/339/16 134/340/16 220/341/16
f 146/339/16 220/341/16 219/342/16
f 116/343/49 117/344/49 231/345/49
f 116/343/49 231/345/49 232/346/49
f 233/347/3 128/348/3 224/190/3
f 233/347/3 224/190/3 223/349/3
f 98/350/16 99/351/16 234/352/16
f 99/351/16 235/353/16 234/352/16
f 221/354/50 222/355/50 236/356/50
f 221/354/50 236/356/50 237/357/50
f 226/358/51 225/359/51 238/360/51
f 226/358/51 238/360/51 239/361/51
f 234/362/52 235/363/52 240/364/52
f 234/362/52 240/364/52 241/365/52
f 131/366/53 130/367/53 242/368/53
f 131/366/53 242/368/53 243/369/53
f 109/370/54 108/371/54 244/372/54
f 109/370/54 244/372/54 245/373/54
f 232/374/55 231/375/55 246/376/55
f 231/375/55 247/377/55 246/376/55
f 227/378/56 228/379/56 248/380/56
f 228/379/56 249/381/56 248/380/56
f 230/382/57 229/383/57 250/384/57
f 230/382/57 250/384/57 251/385/57
f 252/386/58 253/387/58 254/388/58
f 252/386/58 254/388/58 255/389/58
f 256/390/59 257/391/59 258/392/59
f 257/391/59 259/393/59 258/392/59
f 241/394/60 240/395/60 260/396/60
f 240/395/60 261/397/60 260/396/60
f 243/398/61 242/399/61 262/400/61
f 243/398/61 262/400/61 263/401/61
f 245/402/62 244/331/62 264/403/62
f 245/402/62 264/403/62 265/404/62
f 246/405/63 247/406/63 266/407/63
f 246/405/63 266/407/63 267/408/63
f 248/409/64 249/410/64 268/411/64
f 249/410/64 269/412/64 268/411/64
f 251/413/3 250/414/3 270/415/3
f 251/413/3 270/415/3 271/416/3
f 272/417/65 273/418/65 274/419/65
f 273/418/65 275/420/65 274/419/65
f 276/421/66 277/422/66 278/423/66
f 276/421/66 278/423/66 279/424/66
f 280/425/67 281/426/67 282/427/67
f 280/425/67 282/427/67 283/428/67
f 278/429/68 284/430/68 285/431/68
f 284/430/68 286/432/68 285/431/68
f 275/433/69 287/434/69 288/435/69
f 287/434/69 289/436/69 288/435/69
f 290/437/70 287/21/70 275/438/70
f 290/437/70 275/438/70 273/439/70
f 291/440/71 284/441/71 278/442/71
f 291/440/71 278/442/71 277/443/71
f 292/444/72 293/445/72 294/446/72
f 293/445/72 295/447/72 294/446/72
f 142/448/73 143/449/73 148/450/73
f 142/448/73 148/450/73 147/451/73
f 138/205/74 139/452/74 144/453/74
f 139/452/74 145/454/74 144/453/74
f 160/455/21 159/456/21 127/193/21
f 160/455/21 127/193/21 126/192/21
f 157/457/75 158/458/75 123/459/75
f 157/457/75 123/459/75 122/460/75
f 101/163/3 100/162/3 119/185/3
f 101/163/3 119/185/3 118/184/3
f 91/461/76 90/462/76 114/463/76
f 90/462/76 115/464/76 114/463/76
f 104/465/77 105/466/77 110/467/77
f 105/466/77 111/468/77 110/467/77
f 102/469/78 103/470/78 96/351/78
f 103/470/78 97/471/78 96/351/78
f 90/472/5 296/473/5 297/474/5
f 90/472/5 297/474/5 115/475/5
f 298/476/5 104/477/5 110/478/5
f 298/476/5 110/478/5 299/479/5
f 103/480/79 300/481/79 301/482/79
f 103/480/79 301/482/79 97/483/79
f 302/484/3 101/163/3 118/184/3
f 302/484/3 118/184/3 303/485/3
f 257/486/71 304/487/71 305/488/71
f 257/486/71 305/488/71 259/489/71
f 306/490/71 291/440/71 277/443/71
f 306/490/71 277/443/71 307/491/71
f 293/492/80 308/493/80 309/494/80
f 293/492/80 309/494/80 295/495/80
f 310/496/80 290/497/80 273/498/80
f 310/496/80 273/498/80 311/499/80
f 312/500/67 313/501/67 314/502/67
f 312/500/67 314/502/67 315/503/67
f 316/504/67 280/425/67 283/428/67
f 316/504/67 283/428/67 317/505/67
f 258/506/81 259/507/81 305/508/81
f 258/506/81 305/508/81 318/509/81
f 319/510/81 307/511/81 277/422/81
f 319/510/81 277/422/81 276/421/81
f 294/512/82 295/513/82 309/514/82
f 294/512/82 309/514/82 320/515/82
f 321/516/82 311/517/82 273/518/82
f 321/516/82 273/518/82 272/519/82
f 240/520/83 322/521/83 261/522/83
f 322/521/83 323/523/83 261/522/83
f 324/524/84 251/525/84 325/526/84
f 251/525/84 271/527/84 325/526/84
f 249/528/62 326/529/62 327/530/62
f 249/528/62 327/530/62 269/531/62
f 328/532/62 245/402/62 265/404/62
f 328/532/62 265/404/62 329/533/62
f 247/416/5 330/534/5 331/535/5
f 247/416/5 331/535/5 266/536/5
f 332/537/85 243/538/85 333/539/85
f 243/538/85 263/540/85 333/539/85
f 334/541/86 335/542/86 336/543/86
f 335/542/86 337/544/86 336/543/86
f 338/545/58 252/386/58 255/389/58
f 338/545/58 255/389/58 339/546/58
f 235/547/87 340/548/87 240/549/87
f 340/548/87 322/550/87 240/549/87
f 341/551/88 230/552/88 324/553/88
f 230/552/88 251/554/88 324/553/88
f 228/555/54 342/556/54 326/557/54
f 228/555/54 326/557/54 249/558/54
f 343/559/54 109/370/54 245/373/54
f 343/559/54 245/373/54 328/560/54
f 231/561/89 344/562/89 330/563/89
f 231/561/89 330/563/89 247/564/89
f 345/565/90 131/566/90 332/567/90
f 131/566/90 243/568/90 332/567/90
f 222/569/51 346/570/51 347/571/51
f 222/569/51 347/571/51 236/572/51
f 348/573/51 226/358/51 239/361/51
f 348/573/51 239/361/51 349/574/51
f 134/575/3 133/576/3 350/577/3
f 134/575/3 350/577/3 220/578/3
f 351/579/3 233/347/3 223/349/3
f 351/579/3 223/349/3 352/580/3
f 99/581/91 353/582/91 235/583/91
f 353/582/91 340/584/91 235/583/91
f 354/585/3 121/187/3 230/338/3
f 354/585/3 230/338/3 341/586/3
f 220/587/47 350/588/47 346/589/47
f 220/587/47 346/589/47 222/528/47
f 352/590/47 223/329/47 226/332/47
f 352/590/47 226/332/47 348/591/47
f 200/592/10 199/593/10 355/594/10
f 200/592/10 355/594/10 356/595/10
f 357/596/1 358/597/1 190/286/1
f 357/596/1 190/286/1 189/285/1
f 196/598/10 195/599/10 359/600/10
f 196/598/10 359/600/10 360/601/10
f 361/602/1 362/603/1 186/282/1
f 361/602/1 186/282/1 185/281/1
f 129/604/10 128/151/10 233/605/10
f 129/604/10 233/605/10 363/606/10
f 364/607/10 351/608/10 133/201/10
f 364/607/10 133/201/10 132/200/10
f 117/609/5 365/610/5 344/611/5
f 117/609/5 344/611/5 231/612/5
f 366/613/5 113/614/5 131/615/5
f 366/613/5 131/615/5 345/616/5
f 97/617/92 301/618/92 99/619/92
f 301/618/92 353/620/92 99/619/92
f 303/485/3 118/184/3 121/187/3
f 303/485/3 121/187/3 354/585/3
f 115/475/5 297/474/5 365/610/5
f 115/475/5 365/610/5 117/609/5
f 299/479/5 110/478/5 113/614/5
f 299/479/5 113/614/5 366/613/5
f 124/621/5 367/622/5 342/623/5
f 124/621/5 342/623/5 228/624/5
f 368/625/5 106/172/5 109/175/5
f 368/625/5 109/175/5 343/626/5
f 89/627/5 369/628/5 90/472/5
f 369/628/5 296/473/5 90/472/5
f 370/629/5 93/630/5 298/476/5
f 93/630/5 104/477/5 298/476/5
f 83/631/93 371/632/93 300/633/93
f 83/631/93 300/633/93 103/634/93
f 372/635/3 94/156/3 101/163/3
f 372/635/3 101/163/3 302/484/3
f 81/636/94 373/637/94 83/638/94
f 373/637/94 371/639/94 83/638/94
f 374/640/95 375/641/95 376/642/95
f 374/640/95 376/642/95 377/643/95
f 86/644/5 378/645/5 369/628/5
f 86/644/5 369/628/5 89/627/5
f 379/646/96 380/647/96 381/648/96
f 380/647/96 382/649/96 381/648/96
f 78/650/97 383/651/97 378/652/97
f 78/650/97 378/652/97 86/112/97
f 384/653/97 76/654/97 85/217/97
f 384/653/97 85/217/97 385/655/97
f 28/656/3 60/657/3 386/658/3
f 28/656/3 386/658/3 53/659/3
f 387/660/3 77/244/3 71/661/3
f 387/660/3 71/661/3 388/662/3
f 50/119/3 389/663/3 383/664/3
f 50/119/3 383/664/3 78/120/3
f 390/665/5 65/114/5 76/117/5
f 390/665/5 76/117/5 384/666/5
f 53/667/98 386/668/98 81/669/98
f 386/668/98 373/670/98 81/669/98
f 388/671/20 71/110/20 74/113/20
f 388/671/20 74/113/20 391/672/20
f 40/673/10 8/674/10 69/675/10
f 40/673/10 69/675/10 392/676/10
f 393/677/1 394/678/1 70/109/1
f 393/677/1 70/109/1 43/60/1
f 67/99/3 2/100/3 70/679/3
f 67/99/3 70/679/3 395/680/3
f 396/681/3 394/682/3 69/683/3
f 396/681/3 69/683/3 68/684/3
f 50/685/1 64/686/1 397/687/1
f 50/685/1 397/687/1 389/688/1
f 390/689/10 398/690/10 66/94/10
f 390/689/10 66/94/10 65/93/10
f 61/691/3 44/692/3 399/693/3
f 44/692/3 400/694/3 399/693/3
f 401/695/5 402/696/5 46/88/5
f 401/695/5 46/88/5 62/87/5
f 57/686/1 58/685/1 77/697/1
f 57/686/1 77/697/1 403/698/1
f 404/699/10 387/700/10 60/80/10
f 404/699/10 60/80/10 59/79/10
f 44/701/10 45/702/10 405/703/10
f 44/701/10 405/703/10 400/704/10
f 402/705/1 406/706/1 46/65/1
f 406/706/1 47/66/1 46/65/1
f 41/707/10 40/673/10 392/676/10
f 41/707/10 392/676/10 407/708/10
f 408/709/1 393/677/1 43/60/1
f 408/709/1 43/60/1 42/59/1
f 409/710/99 410/711/99 411/712/99
f 409/710/99 411/712/99 412/713/99
f 413/714/100 414/715/100 415/716/100
f 414/715/100 416/717/100 415/716/100
f 417/718/101 418/719/101 419/720/101
f 418/719/101 420/721/101 419/720/101
f 421/722/102 422/723/102 423/724/102
f 422/723/102 424/725/102 423/724/102
f 425/726/103 379/656/103 426/727/103
f 379/656/103 381/728/103 426/727/103
f 427/729/104 417/730/104 419/731/104
f 427/729/104 419/731/104 428/732/104
f 375/733/105 429/734/105 430/735/105
f 375/733/105 430/735/105 376/736/105
f 422/737/106 431/738/106 432/739/106
f 422/737/106 432/739/106 424/740/106
f 433/741/3 434/742/3 435/743/3
f 434/742/3 436/744/3 435/743/3
f 437/745/5 438/746/5 439/747/5
f 437/745/5 439/747/5 440/748/5
f 441/749/107 409/750/107 435/751/107
f 409/750/107 412/752/107 435/751/107
f 442/753/108 443/754/108 434/755/108
f 442/753/108 434/755/108 433/756/108
f 444/757/109 445/758/109 438/759/109
f 445/758/109 439/760/109 438/759/109
f 443/761/110 446/762/110 436/763/110
f 443/761/110 436/763/110 434/764/110
f 447/765/111 413/766/111 440/767/111
f 413/766/111 415/768/111 440/767/111
f 448/769/112 444/770/112 438/771/112
f 448/769/112 438/771/112 437/772/112
f 371/773/113 373/774/113 449/775/113
f 373/774/113 450/776/113 449/775/113
f 391/777/114 74/778/114 451/779/114
f 391/777/114 451/779/114 452/780/114
f 372/781/115 371/782/115 449/783/115
f 372/781/115 449/783/115 453/784/115
f 74/785/116 94/786/116 454/787/116
f 74/785/116 454/787/116 451/788/116
f 369/789/117 378/790/117 455/791/117
f 378/790/117 456/792/117 455/791/117
f 385/793/118 85/794/118 457/795/118
f 385/793/118 457/795/118 458/796/118
f 85/797/119 93/798/119 459/799/119
f 85/797/119 459/799/119 457/800/119
f 370/801/120 369/802/120 460/803/120
f 369/802/120 455/804/120 460/803/120
f 449/805/121 450/806/121 461/807/121
f 450/806/121 462/808/121 461/807/121
f 452/809/122 451/810/122 463/811/122
f 452/809/122 463/811/122 464/812/122
f 453/813/123 449/814/123 461/815/123
f 453/813/123 461/815/123 465/816/123
f 451/817/124 454/818/124 466/819/124
f 451/817/124 466/819/124 463/820/124
f 455/821/125 456/822/125 467/823/125
f 456/822/125 468/824/125 467/823/125
f 458/825/126 457/826/126 469/827/126
f 458/825/126 469/827/126 470/828/126
f 457/829/127 459/830/127 471/831/127
f 457/829/127 471/831/127 469/832/127
f 460/833/128 455/834/128 472/835/128
f 455/834/128 467/836/128 472/835/128
f 419/837/129 420/838/129 446/839/129
f 419/837/129 446/839/129 443/840/129
f 428/841/130 419/842/130 443/843/130
f 428/841/130 443/843/130 442/844/130
f 423/845/131 424/846/131 441/847/131
f 424/846/131 409/848/131 441/847/131
f 424/849/132 432/850/132 409/851/132
f 432/850/132 410/852/132 409/851/132
f 426/853/133 381/854/133 444/855/133
f 426/853/133 444/855/133 448/856/133
f 377/857/134 376/747/134 413/858/134
f 377/857/134 413/858/134 447/859/134
f 381/860/135 382/861/135 445/862/135
f 381/860/135 445/862/135 444/863/135
f 376/864/136 430/865/136 413/866/136
f 430/865/136 414/31/136 413/866/136
f 325/436/137 271/867/137 252/868/137
f 325/436/137 252/868/137 338/869/137
f 261/870/138 323/871/138 334/872/138
f 323/871/138 335/873/138 334/872/138
f 329/874/71 265/875/71 291/440/71
f 329/874/71 291/440/71 306/490/71
f 269/876/71 327/877/71 304/487/71
f 269/876/71 304/487/71 257/486/71
f 265/875/71 264/878/71 284/441/71
f 265/875/71 284/441/71 291/440/71
f 260/879/139 261/880/139 473/881/139
f 261/880/139 334/882/139 473/881/139
f 268/883/140 269/884/140 257/885/140
f 268/883/140 257/885/140 256/886/140
f 271/887/58 270/888/58 253/387/58
f 271/887/58 253/387/58 252/386/58
f 349/889/67 239/890/67 280/425/67
f 349/889/67 280/425/67 316/504/67
f 236/891/67 347/892/67 313/501/67
f 236/891/67 313/501/67 312/500/67
f 333/893/141 263/894/141 290/895/141
f 333/893/141 290/895/141 310/896/141
f 266/897/80 331/898/80 308/493/80
f 266/897/80 308/493/80 293/492/80
f 267/899/142 266/900/142 293/901/142
f 267/899/142 293/901/142 292/902/142
f 263/903/143 262/904/143 287/905/143
f 263/903/143 287/905/143 290/906/143
f 237/907/144 236/908/144 312/909/144
f 237/907/144 312/909/144 474/910/144
f 239/890/67 238/911/67 281/426/67
f 239/890/67 281/426/67 280/425/67
f 475/912/145 476/913/145 477/914/145
f 475/912/145 477/914/145 478/915/145
f 479/916/146 480/917/146 481/918/146
f 480/917/146 482/919/146 481/918/146
f 474/920/147 312/921/147 475/922/147
f 312/921/147 476/923/147 475/922/147
f 274/924/148 275/925/148 288/926/148
f 274/924/148 288/926/148 483/927/148
f 312/928/149 315/929/149 477/930/149
f 312/928/149 477/930/149 476/931/149
f 279/424/150 278/423/150 484/932/150
f 278/423/150 285/933/150 484/932/150
f 473/934/151 334/935/151 480/936/151
f 473/934/151 480/936/151 479/937/151
f 334/938/152 336/939/152 482/940/152
f 334/938/152 482/940/152 480/941/152
f 315/942/153 485/943/153 478/944/153
f 315/942/153 478/944/153 477/945/153
f 485/943/154 274/924/154 483/927/154
f 485/943/154 483/927/154 478/944/154
f 287/941/155 486/946/155 289/947/155
f 486/946/155 487/948/155 289/947/155
f 486/949/156 474/950/156 487/951/156
f 474/950/156 475/952/156 487/951/156
f 289/953/157 487/954/157 483/955/157
f 289/953/157 483/955/157 288/956/157
f 487/957/158 475/958/158 478/959/158
f 487/957/158 478/959/158 483/177/158
f 262/960/159 488/961/159 486/962/159
f 262/960/159 486/962/159 287/963/159
f 488/961/160 237/907/160 474/910/160
f 488/961/160 474/910/160 486/962/160
f 238/964/161 489/965/161 281/966/161
f 489/965/161 490/967/161 281/966/161
f 489/968/162 267/969/162 292/970/162
f 489/968/162 292/970/162 490/971/162
f 406/706/1 491/972/1 492/973/1
f 406/706/1 492/973/1 47/66/1
f 491/972/1 361/602/1 185/281/1
f 491/972/1 185/281/1 492/973/1
f 45/702/10 493/974/10 494/975/10
f 45/702/10 494/975/10 405/703/10
f 493/974/10 196/598/10 360/601/10
f 493/974/10 360/601/10 494/975/10
f 317/976/82 495/977/82 496/978/82
f 317/976/82 496/978/82 314/979/82
f 495/977/82 321/516/82 272/519/82
f 495/977/82 272/519/82 496/978/82
f 282/980/82 497/506/82 498/981/82
f 282/980/82 498/981/82 283/982/82
f 497/506/82 294/512/82 320/515/82
f 497/506/82 320/515/82 498/981/82
f 159/983/163 499/984/163 127/985/163
f 499/984/163 500/986/163 127/985/163
f 499/987/164 91/988/164 500/851/164
f 91/988/164 114/989/164 500/851/164
f 105/990/165 501/991/165 502/992/165
f 105/990/165 502/992/165 111/993/165
f 501/48/166 138/994/166 502/995/166
f 138/994/166 144/996/166 502/995/166
f 281/997/167 490/998/167 497/999/167
f 281/997/167 497/999/167 282/1000/167
f 490/971/168 292/970/168 294/1001/168
f 490/971/168 294/1001/168 497/1002/168
f 314/979/169 496/978/169 315/942/169
f 496/978/169 485/943/169 315/942/169
f 496/1003/170 272/417/170 485/1004/170
f 272/417/170 274/419/170 485/1004/170
f 225/1005/171 503/1006/171 489/1007/171
f 225/1005/171 489/1007/171 238/1008/171
f 503/1009/172 246/1010/172 267/1011/172
f 503/1009/172 267/1011/172 489/1012/172
f 224/1013/173 504/1014/173 503/1015/173
f 224/1013/173 503/1015/173 225/1016/173
f 504/1017/174 232/1018/174 246/1019/174
f 504/1017/174 246/1019/174 503/1020/174
f 242/1021/175 505/1022/175 488/1016/175
f 242/1021/175 488/1016/175 262/1023/175
f 505/1024/176 221/1025/176 237/1026/176
f 505/1024/176 237/1026/176 488/1027/176
f 128/1028/177 506/1029/177 504/1030/177
f 128/1028/177 504/1030/177 224/1031/177
f 506/1032/178 116/871/178 232/1033/178
f 506/1032/178 232/1033/178 504/1034/178
f 112/1035/16 507/1036/16 508/1037/16
f 112/1035/16 508/1037/16 130/1038/16
f 507/1036/16 146/339/16 219/342/16
f 507/1036/16 219/342/16 508/1037/16
f 130/1039/179 508/1040/179 242/1041/179
f 508/1040/179 505/1042/179 242/1041/179
f 508/1040/180 219/1043/180 505/1042/180
f 219/1043/180 221/1044/180 505/1042/180
f 33/1045/12 34/1046/12 509/1047/12
f 33/1045/12 509/1047/12 510/1048/12
f 510/1048/12 509/1047/12 202/302/12
f 510/1048/12 202/302/12 205/301/12
f 37/50/1 511/1049/1 509/1050/1
f 37/50/1 509/1050/1 34/51/1
f 511/1049/1 188/284/1 202/298/1
f 511/1049/1 202/298/1 509/1050/1
f 20/134/13 26/1051/13 493/1052/13
f 20/134/13 493/1052/13 45/1053/13
f 26/1051/13 193/289/13 196/292/13
f 26/1051/13 196/292/13 493/1052/13
f 47/66/1 492/973/1 511/1049/1
f 47/66/1 511/1049/1 37/50/1
f 492/973/1 185/281/1 188/284/1
f 492/973/1 188/284/1 511/1049/1
f 11/1054/16 31/1055/16 512/1056/16
f 11/1054/16 512/1056/16 75/1057/16
f 31/1055/16 177/265/16 165/268/16
f 31/1055/16 165/268/16 512/1056/16
f 84/1058/181 513/1059/181 514/1060/181
f 84/1058/181 514/1060/181 92/1061/181
f 513/1062/182 168/1063/182 136/1064/182
f 513/1062/182 136/1064/182 514/1065/182
f 75/1066/183 512/1067/183 513/1068/183
f 75/1066/183 513/1068/183 84/1069/183
f 512/1070/184 165/1071/184 168/1072/184
f 512/1070/184 168/1072/184 513/1073/184
f 111/1074/185 502/1075/185 507/1076/185
f 111/1074/185 507/1076/185 112/1077/185
f 502/1078/186 144/1079/186 146/1080/186
f 502/1078/186 146/1080/186 507/1081/186
f 92/1082/187 514/1083/187 501/1084/187
f 92/1082/187 501/1084/187 105/1085/187
f 514/1086/188 136/1087/188 501/1088/188
f 136/1087/188 138/1089/188 501/1088/188
f 127/1090/189 500/1091/189 128/1092/189
f 500/1091/189 506/1093/189 128/1092/189
f 500/1091/190 114/180/190 506/1093/190
f 114/180/190 116/182/190 506/1093/190
f 154/225/28 515/1094/28 516/238/28
f 154/225/28 516/238/28 155/226/28
f 515/1094/28 87/150/28 88/153/28
f 515/1094/28 88/153/28 516/238/28
f 155/1095/191 516/1096/191 499/1097/191
f 155/1095/191 499/1097/191 159/1098/191
f 516/1099/192 88/1100/192 91/1101/192
f 516/1099/192 91/1101/192 499/1102/192
f 164/240/25 517/1103/25 515/223/25
f 164/240/25 515/223/25 154/222/25
f 517/1103/25 79/138/25 87/141/25
f 517/1103/25 87/141/25 515/223/25
f 176/262/21 518/1104/21 517/1105/21
f 176/262/21 517/1105/21 164/263/21
f 518/1104/21 51/122/21 79/125/21
f 518/1104/21 79/125/21 517/1105/21
f 184/278/15 519/1106/15 518/1107/15
f 184/278/15 518/1107/15 176/279/15
f 519/1106/15 48/67/15 51/70/15
f 519/1106/15 51/70/15 518/1107/15
f 178/314/10 177/1108/10 520/1109/10
f 178/314/10 520/1109/10 212/315/10
f 177/1108/10 31/37/10 32/40/10
f 177/1108/10 32/40/10 520/1109/10
f 218/324/8 194/323/8 193/1110/8
f 218/324/8 193/1110/8 521/1111/8
f 521/1111/8 193/1110/8 26/30/8
f 521/1111/8 26/30/8 25/29/8
f 284/1112/193 522/1113/193 523/1114/193
f 284/1112/193 523/1114/193 286/1115/193
f 522/1116/194 473/1117/194 479/1118/194
f 522/1116/194 479/1118/194 523/459/194
f 336/1119/195 524/1120/195 482/1121/195
f 524/1120/195 481/1122/195 482/1121/195
f 524/1120/196 279/424/196 481/1122/196
f 279/424/196 484/932/196 481/1122/196
f 286/1123/197 523/1124/197 285/1125/197
f 523/1124/197 484/1126/197 285/1125/197
f 523/1127/198 479/1128/198 484/1129/198
f 479/1128/198 481/1130/198 484/1129/198
f 270/1131/199 525/1132/199 253/1133/199
f 525/1132/199 526/1134/199 253/1133/199
f 525/1010/200 268/1135/200 526/1136/200
f 268/1135/200 256/1137/200 526/1136/200
f 264/1138/201 527/1139/201 284/1140/201
f 527/1139/201 522/1141/201 284/1140/201
f 527/1139/202 260/879/202 522/1141/202
f 260/879/202 473/881/202 522/1141/202
f 358/597/1 528/1142/1 529/1143/1
f 358/597/1 529/1143/1 190/286/1
f 528/1142/1 408/709/1 42/59/1
f 528/1142/1 42/59/1 529/1143/1
f 199/593/10 530/1144/10 531/1145/10
f 199/593/10 531/1145/10 355/594/10
f 530/1144/10 41/707/10 407/708/10
f 530/1144/10 407/708/10 531/1145/10
f 339/1146/81 532/1147/81 533/1148/81
f 339/1146/81 533/1148/81 337/1149/81
f 532/1147/81 319/510/81 276/421/81
f 532/1147/81 276/421/81 533/1148/81
f 254/1150/81 534/512/81 535/1151/81
f 254/1150/81 535/1151/81 255/1152/81
f 534/512/81 258/506/81 318/509/81
f 534/512/81 318/509/81 535/1151/81
f 143/1153/203 536/1154/203 537/1155/203
f 143/1153/203 537/1155/203 148/1156/203
f 536/1157/204 102/1158/204 96/1159/204
f 536/1157/204 96/1159/204 537/1160/204
f 100/1161/205 538/1162/205 539/127/205
f 100/1161/205 539/127/205 119/1163/205
f 538/1164/206 157/1165/206 122/1166/206
f 538/1164/206 122/1166/206 539/1167/206
f 337/1168/207 533/1169/207 524/1170/207
f 337/1168/207 524/1170/207 336/1171/207
f 533/1169/208 276/1172/208 279/1173/208
f 533/1169/208 279/1173/208 524/1170/208
f 250/1174/209 540/1175/209 270/1176/209
f 540/1175/209 525/1177/209 270/1176/209
f 540/1178/210 248/1179/210 525/1180/210
f 248/1179/210 268/1181/210 525/1180/210
f 244/1182/211 541/1183/211 264/354/211
f 541/1183/211 527/1184/211 264/354/211
f 541/1185/212 241/1186/212 527/1187/212
f 241/1186/212 260/1188/212 527/1187/212
f 253/1189/213 526/1190/213 534/1191/213
f 253/1189/213 534/1191/213 254/1192/213
f 526/1136/214 256/1137/214 534/1193/214
f 256/1137/214 258/1194/214 534/1193/214
f 229/1195/215 542/1196/215 540/1197/215
f 229/1195/215 540/1197/215 250/1198/215
f 542/1199/216 227/1200/216 540/1201/216
f 227/1200/216 248/1202/216 540/1201/216
f 108/1203/217 543/1204/217 541/1205/217
f 108/1203/217 541/1205/217 244/1206/217
f 543/1207/218 234/362/218 241/365/218
f 543/1207/218 241/365/218 541/1208/218
f 107/1209/16 544/1210/16 108/1211/16
f 544/1210/16 543/1212/16 108/1211/16
f 544/1210/16 98/350/16 543/1212/16
f 98/350/16 234/352/16 543/1212/16
f 120/1213/219 545/1214/219 229/1215/219
f 545/1214/219 542/1216/219 229/1215/219
f 545/1034/220 125/1217/220 542/1218/220
f 125/1217/220 227/1219/220 542/1218/220
f 23/1220/8 24/1221/8 39/1222/8
f 23/1220/8 39/1222/8 546/1223/8
f 546/1223/8 39/1222/8 215/318/8
f 546/1223/8 215/318/8 214/317/8
f 28/1224/10 52/1225/10 547/1226/10
f 28/1224/10 547/1226/10 30/1227/10
f 52/1225/10 209/309/10 211/312/10
f 52/1225/10 211/312/10 547/1226/10
f 56/1228/15 548/1229/15 549/1230/15
f 56/1228/15 549/1230/15 58/1231/15
f 548/1229/15 181/273/15 173/276/15
f 548/1229/15 173/276/15 549/1230/15
f 58/1232/21 549/1233/21 550/1234/21
f 58/1232/21 550/1234/21 72/1235/21
f 549/1233/21 173/257/21 161/260/21
f 549/1233/21 161/260/21 550/1234/21
f 72/1236/25 550/1237/25 551/153/25
f 72/1236/25 551/153/25 73/152/25
f 550/1237/25 161/236/25 149/238/25
f 550/1237/25 149/238/25 551/153/25
f 95/1238/221 552/1239/221 100/1240/221
f 552/1239/221 538/1241/221 100/1240/221
f 552/1242/222 152/1243/222 538/1244/222
f 152/1243/222 157/1245/222 538/1244/222
f 73/43/28 551/1246/28 552/141/28
f 73/43/28 552/141/28 95/140/28
f 551/1246/28 149/220/28 152/223/28
f 551/1246/28 152/223/28 552/141/28
f 119/1247/223 539/1248/223 545/1249/223
f 119/1247/223 545/1249/223 120/1250/223
f 539/1248/224 122/188/224 125/191/224
f 539/1248/224 125/191/224 545/1249/224
f 141/414/225 553/204/225 536/1251/225
f 141/414/225 536/1251/225 143/1252/225
f 553/1253/226 82/1254/226 102/1255/226
f 553/1253/226 102/1255/226 536/1256/226
f 148/1257/227 537/1258/227 107/1259/227
f 537/1258/227 544/1260/227 107/1259/227
f 537/1261/228 96/1262/228 544/1263/228
f 96/1262/228 98/1264/228 544/1263/228
f 170/1265/229 554/1266/229 171/1267/229
f 554/1266/229 555/1268/229 171/1267/229
f 554/1269/230 54/1270/230 555/1271/230
f 54/1270/230 80/1272/230 555/1271/230
f 171/1273/231 555/1274/231 553/1275/231
f 171/1273/231 553/1275/231 141/1276/231
f 555/1277/232 80/1278/232 553/1279/232
f 80/1278/232 82/1280/232 553/1279/232
f 180/270/16 209/1281/16 554/1282/16
f 180/270/16 554/1282/16 170/271/16
f 209/1281/16 52/71/16 54/74/16
f 209/1281/16 54/74/16 554/1282/16
f 190/286/1 529/1143/1 556/1283/1
f 190/286/1 556/1283/1 191/287/1
f 529/1143/1 42/59/1 38/53/1
f 529/1143/1 38/53/1 556/1283/1
f 198/294/13 215/1284/13 530/1285/13
f 198/294/13 530/1285/13 199/295/13
f 215/1284/13 39/55/13 41/58/13
f 215/1284/13 41/58/13 530/1285/13
f 191/287/1 556/1283/1 557/1286/1
f 191/287/1 557/1286/1 203/299/1
f 556/1283/1 38/53/1 36/54/1
f 556/1283/1 36/54/1 557/1286/1
f 208/308/12 203/307/12 557/1287/12
f 208/308/12 557/1287/12 558/1288/12
f 558/1288/12 557/1287/12 36/46/12
f 558/1288/12 36/46/12 35/45/12
f 461/1181/233 462/1289/233 431/1290/233
f 461/1181/233 431/1290/233 422/1291/233
f 464/1292/234 463/1293/234 427/1294/234
f 463/1293/234 417/1295/234 427/1294/234
f 465/1296/235 461/1297/235 422/1298/235
f 465/1296/235 422/1298/235 421/1299/235
f 463/1300/236 466/1301/236 418/1302/236
f 463/1300/236 418/1302/236 417/1303/236
f 467/1304/237 468/1305/237 375/1306/237
f 468/1305/237 429/1307/237 375/1306/237
f 470/1308/238 469/1309/238 379/1310/238
f 470/1308/238 379/1310/238 425/1311/238
f 469/1312/239 471/1313/239 379/1314/239
f 471/1313/239 380/1315/239 379/1314/239
f 472/1316/240 467/1317/240 374/1318/240
f 467/1317/240 375/1319/240 374/1318/240
f 559/1320/241 558/1321/241 35/1322/241
f 559/1320/241 35/1322/241 560/1323/241
f 561/1324/241 208/1325/241 558/1321/241
f 561/1324/241 558/1321/241 559/1320/241
f 562/1326/21 546/1327/21 214/1328/21
f 562/1326/21 214/1328/21 563/1329/21
f 564/549/21 23/1330/21 546/1327/21
f 564/549/21 546/1327/21 562/1326/21
f 565/1331/21 521/1332/21 25/1333/21
f 565/1331/21 25/1333/21 566/1334/21
f 567/1335/21 218/1336/21 521/1332/21
f 567/1335/21 521/1332/21 565/1331/21
f 568/1337/241 510/1338/241 205/1339/241
f 568/1337/241 205/1339/241 569/1340/241
f 570/1341/241 33/1342/241 510/1338/241
f 570/1341/241 510/1338/241 568/1337/241
f 571/1343/5 401/695/5 62/87/5
f 571/1343/5 62/87/5 572/1344/5
f 573/1345/3 61/691/3 399/693/3
f 573/1345/3 399/693/3 574/1346/3
f 575/1347/3 396/681/3 68/684/3
f 575/1347/3 68/684/3 576/1348/3
f 577/1349/3 67/99/3 395/680/3
f 577/1349/3 395/680/3 578/1350/3
f 579/1351/21 217/1352/21 218/1336/21
f 579/1351/21 218/1336/21 567/1335/21
f 563/1329/21 214/1328/21 216/1353/21
f 563/1329/21 216/1353/21 580/1354/21
f 581/1355/241 207/1356/241 208/1325/241
f 581/1355/241 208/1325/241 561/1324/241
f 569/1340/241 205/1339/241 206/1357/241
f 569/1340/241 206/1357/241 582/1358/241
f 576/1359/5 68/101/5 7/103/5
f 576/1359/5 7/103/5 583/1360/5
f 584/1361/3 6/97/3 67/99/3
f 584/1361/3 67/99/3 577/1349/3
f 572/1344/5 62/87/5 15/17/5
f 572/1344/5 15/17/5 585/1362/5
f 586/1363/5 22/83/5 61/85/5
f 586/1363/5 61/85/5 573/1364/5
f 560/1323/241 35/1322/241 5/1365/241
f 560/1323/241 5/1365/241 587/1366/241
f 588/1367/242 18/1368/242 570/1369/242
f 18/1368/242 33/1370/242 570/1369/242
f 566/1334/21 25/1333/21 19/1371/21
f 566/1334/21 19/1371/21 589/1372/21
f 590/1373/243 10/1374/243 564/1375/243
f 10/1374/243 23/344/243 564/1375/243
f 589/63/244 19/1376/244 22/1377/244
f 589/63/244 22/1377/244 586/1378/244
f 585/1362/5 15/17/5 18/20/5
f 585/1362/5 18/20/5 588/1379/5
f 583/1380/3 7/9/3 10/12/3
f 583/1380/3 10/12/3 590/1381/3
f 587/1382/245 5/1383/245 6/541/245
f 587/1382/245 6/541/245 584/1384/245
f 30/1385/246 587/1386/246 29/1387/246
f 587/1386/246 584/1388/246 29/1387/246
f 57/1389/3 583/1380/3 55/1390/3
f 583/1380/3 590/1381/3 55/1390/3
f 12/1391/5 585/1362/5 588/1379/5
f 12/1391/5 588/1379/5 13/1392/5
f 49/1393/247 589/1394/247 63/1395/247
f 589/1394/247 586/1396/247 63/1395/247
f 55/935/248 590/1397/248 564/1398/248
f 55/935/248 564/1398/248 56/1399/248
f 48/1400/249 566/1401/249 589/1115/249
f 48/1400/249 589/1115/249 49/1402/249
f 13/1403/250 588/1404/250 570/1405/250
f 13/1403/250 570/1405/250 14/1406/250
f 547/1333/251 560/1407/251 587/1408/251
f 547/1333/251 587/1408/251 30/1371/251
f 63/1409/5 586/1363/5 573/1364/5
f 63/1409/5 573/1364/5 64/1410/5
f 66/1411/5 572/1344/5 585/1362/5
f 66/1411/5 585/1362/5 12/1391/5
f 29/1412/3 584/1361/3 27/1413/3
f 584/1361/3 577/1349/3 27/1413/3
f 403/1414/5 576/1359/5 583/1360/5
f 403/1414/5 583/1360/5 57/1415/5
f 520/1328/251 569/1416/251 582/1417/251
f 520/1328/251 582/1417/251 212/1353/251
f 213/1352/251 581/1418/251 561/1419/251
f 213/1352/251 561/1419/251 210/1336/251
f 181/1420/249 563/1421/249 580/1422/249
f 181/1420/249 580/1422/249 182/1423/249
f 183/1424/249 579/1425/249 567/1426/249
f 183/1424/249 567/1426/249 184/1427/249
f 27/1413/3 577/1349/3 578/1350/3
f 27/1413/3 578/1350/3 59/1428/3
f 404/1429/3 575/1347/3 576/1348/3
f 404/1429/3 576/1348/3 403/1430/3
f 64/1431/3 573/1345/3 574/1346/3
f 64/1431/3 574/1346/3 397/1432/3
f 398/1433/5 571/1343/5 572/1344/5
f 398/1433/5 572/1344/5 66/1411/5
f 14/1330/251 570/1434/251 568/1435/251
f 14/1330/251 568/1435/251 32/1327/251
f 32/1327/251 568/1435/251 569/1416/251
f 32/1327/251 569/1416/251 520/1328/251
f 184/1427/249 567/1426/249 565/1436/249
f 184/1427/249 565/1436/249 519/1437/249
f 519/1437/249 565/1436/249 566/1401/249
f 519/1437/249 566/1401/249 48/1400/249
f 56/1438/249 564/1439/249 562/1440/249
f 56/1438/249 562/1440/249 548/1441/249
f 548/1441/249 562/1440/249 563/1421/249
f 548/1441/249 563/1421/249 181/1420/249
f 210/1336/251 561/1419/251 559/1442/251
f 210/1336/251 559/1442/251 211/1332/251
f 211/1332/251 559/1442/251 560/1407/251
f 211/1332/251 560/1407/251 547/1333/251
f 182/1423/249 580/1422/249 579/1425/249
f 182/1423/249 579/1425/249 183/1424/249
f 212/1353/251 582/1417/251 581/1418/251
f 212/1353/251 581/1418/251 213/1352/251
f 582/1358/241 206/1357/241 207/1356/241
f 582/1358/241 207/1356/241 581/1355/241
f 580/1354/21 216/1353/21 217/1352/21
f 580/1354/21 217/1352/21 579/1351/21
f 368/1443/10 364/607/10 132/200/10
f 368/1443/10 132/200/10 106/1444/10
f 124/456/10 129/604/10 363/606/10
f 124/456/10 363/606/10 367/1445/10
f 362/603/1 357/596/1 189/285/1
f 362/603/1 189/285/1 186/282/1
f 195/599/10 200/592/10 356/595/10
f 195/599/10 356/595/10 359/600/10
f 158/1446/21 160/455/21 126/192/21
f 158/1446/21 126/192/21 123/1447/21
f 139/1448/73 142/448/73 147/451/73
f 139/1448/73 147/451/73 145/1449/73
f 216/320/8 198/319/8 197/322/8
f 216/320/8 197/322/8 217/321/8
f 180/310/10 179/313/10 213/316/10
f 180/310/10 213/316/10 210/311/10
f 206/304/12 201/303/12 204/306/12
f 206/304/12 204/306/12 207/305/12
f 187/283/1 192/288/1 204/300/1
f 187/283/1 204/300/1 201/297/1
f 194/290/13 197/293/13 200/296/13
f 194/290/13 200/296/13 195/291/13
f 186/282/1 189/285/1 192/288/1
f 186/282/1 192/288/1 187/283/1
f 182/274/15 183/277/15 175/280/15
f 182/274/15 175/280/15 174/275/15
f 178/266/16 179/269/16 169/272/16
f 178/266/16 169/272/16 166/267/16
f 174/258/21 175/261/21 163/264/21
f 174/258/21 163/264/21 162/259/21
f 167/1450/252 172/1451/252 137/1452/252
f 172/1451/252 140/1453/252 137/1452/252
f 166/1454/253 169/1455/253 167/1456/253
f 169/1455/253 172/1457/253 167/1456/253
f 162/237/25 163/239/25 153/227/25
f 162/237/25 153/227/25 150/226/25
f 151/1092/41 156/232/41 160/235/41
f 151/1092/41 160/235/41 158/1458/41
f 150/221/28 153/224/28 156/227/28
f 150/221/28 156/227/28 151/222/28
f 145/1459/39 147/216/39 135/219/39
f 145/1459/39 135/219/39 134/1460/39
f 137/1461/254 140/211/254 142/1462/254
f 137/1461/254 142/1462/254 139/1463/254
f 106/1444/10 132/200/10 135/203/10
f 106/1444/10 135/203/10 107/1464/10
f 123/1447/21 126/192/21 129/195/21
f 123/1447/21 129/195/21 124/1465/21
f 359/1466/1 356/1467/1 357/596/1
f 359/1466/1 357/596/1 362/603/1
f 367/1445/10 363/606/10 364/607/10
f 367/1445/10 364/607/10 368/1443/10
f 397/1468/5 574/1469/5 571/1343/5
f 397/1468/5 571/1343/5 398/1433/5
f 59/1428/3 578/1350/3 575/1347/3
f 59/1428/3 575/1347/3 404/1429/3
f 578/1350/3 395/680/3 396/681/3
f 578/1350/3 396/681/3 575/1347/3
f 574/1469/5 399/1470/5 401/695/5
f 574/1469/5 401/695/5 571/1343/5
f 471/1471/255 472/1472/255 380/1473/255
f 472/1472/255 374/1474/255 380/1473/255
f 468/1475/256 470/1308/256 425/1311/256
f 468/1475/256 425/1311/256 429/1476/256
f 466/1477/257 465/1478/257 421/1479/257
f 466/1477/257 421/1479/257 418/1480/257
f 462/1481/258 464/1292/258 431/1482/258
f 464/1292/258 427/1294/258 431/1482/258
f 535/1151/81 318/509/81 319/510/81
f 535/1151/81 319/510/81 532/1147/81
f 255/1152/81 535/1151/81 532/1147/81
f 255/1152/81 532/1147/81 339/1146/81
f 531/1483/1 407/1484/1 408/709/1
f 531/1483/1 408/709/1 528/1142/1
f 355/1485/1 531/1483/1 528/1142/1
f 355/1485/1 528/1142/1 358/597/1
f 498/981/82 320/515/82 321/516/82
f 498/981/82 321/516/82 495/977/82
f 283/982/82 498/981/82 495/977/82
f 283/982/82 495/977/82 317/976/82
f 494/1486/1 360/1487/1 361/602/1
f 494/1486/1 361/602/1 491/972/1
f 405/1488/1 494/1486/1 491/972/1
f 405/1488/1 491/972/1 406/706/1
f 331/1489/259 333/1490/259 308/1491/259
f 333/1490/259 310/1492/259 308/1491/259
f 347/892/67 349/889/67 316/504/67
f 347/892/67 316/504/67 313/501/67
f 327/877/71 329/874/71 306/490/71
f 327/877/71 306/490/71 304/487/71
f 323/1493/260 325/1494/260 335/1495/260
f 325/1494/260 338/1496/260 335/1495/260
f 382/1497/261 377/1498/261 447/1499/261
f 382/1497/261 447/1499/261 445/1500/261
f 430/1501/133 426/853/133 448/856/133
f 430/1501/133 448/856/133 414/1502/133
f 420/1503/262 423/1504/262 446/1505/262
f 423/1504/262 441/1506/262 446/1505/262
f 432/1507/130 428/841/130 442/844/130
f 432/1507/130 442/844/130 410/1508/130
f 459/1509/263 460/1510/263 471/1511/263
f 460/1510/263 472/1512/263 471/1511/263
f 456/1513/126 458/825/126 470/828/126
f 456/1513/126 470/828/126 468/1514/126
f 454/1515/264 453/1516/264 465/1517/264
f 454/1515/264 465/1517/264 466/1518/264
f 450/1519/122 452/809/122 464/812/122
f 450/1519/122 464/812/122 462/1520/122
f 93/1521/265 370/1522/265 459/1523/265
f 370/1522/265 460/1524/265 459/1523/265
f 378/1525/118 385/793/118 458/796/118
f 378/1525/118 458/796/118 456/1526/118
f 94/1527/266 372/1528/266 453/1529/266
f 94/1527/266 453/1529/266 454/1530/266
f 373/1531/114 391/777/114 452/780/114
f 373/1531/114 452/780/114 450/1532/114
f 414/1533/112 448/769/112 437/772/112
f 414/1533/112 437/772/112 416/1534/112
f 445/1535/267 447/1536/267 440/1537/267
f 445/1535/267 440/1537/267 439/1538/267
f 410/1539/108 442/753/108 433/756/108
f 410/1539/108 433/756/108 411/1540/108
f 446/1541/268 441/1542/268 435/1543/268
f 446/1541/268 435/1543/268 436/1544/268
f 416/1545/5 437/745/5 440/748/5
f 416/1545/5 440/748/5 415/1546/5
f 411/1547/3 433/741/3 412/1548/3
f 433/741/3 435/743/3 412/1548/3
f 431/1549/269 427/1550/269 428/1551/269
f 431/1549/269 428/1551/269 432/1552/269
f 429/1553/270 425/1002/270 430/1554/270
f 425/1002/270 426/1555/270 430/1554/270
f 418/1556/271 421/1557/271 420/1558/271
f 421/1557/271 423/1559/271 420/1558/271
f 407/1484/1 392/1560/1 393/677/1
f 407/1484/1 393/677/1 408/709/1
f 400/1561/1 405/1488/1 406/706/1
f 400/1561/1 406/706/1 402/705/1
f 403/1562/10 77/1563/10 387/700/10
f 403/1562/10 387/700/10 404/699/10
f 399/1470/5 400/1564/5 401/695/5
f 400/1564/5 402/696/5 401/695/5
f 389/1254/10 397/1565/10 398/690/10
f 389/1254/10 398/690/10 390/689/10
f 395/680/3 70/679/3 394/682/3
f 395/680/3 394/682/3 396/681/3
f 392/1560/1 69/1566/1 394/678/1
f 392/1560/1 394/678/1 393/677/1
f 386/1567/20 388/671/20 391/672/20
f 386/1567/20 391/672/20 373/468/20
f 389/1568/5 390/665/5 384/666/5
f 389/1568/5 384/666/5 383/1569/5
f 60/657/3 387/660/3 388/662/3
f 60/657/3 388/662/3 386/658/3
f 383/651/97 384/653/97 385/655/97
f 383/651/97 385/655/97 378/652/97
f 380/1570/272 374/1571/272 377/1572/272
f 380/1570/272 377/1572/272 382/1573/272
f 371/1574/3 372/635/3 302/484/3
f 371/1574/3 302/484/3 300/1575/3
f 369/628/5 370/629/5 296/473/5
f 370/629/5 298/476/5 296/473/5
f 367/622/5 368/625/5 343/626/5
f 367/622/5 343/626/5 342/623/5
f 297/474/5 299/479/5 366/613/5
f 297/474/5 366/613/5 365/610/5
f 301/1576/3 303/485/3 354/585/3
f 301/1576/3 354/585/3 353/1577/3
f 365/610/5 366/613/5 345/616/5
f 365/610/5 345/616/5 344/611/5
f 363/606/10 233/605/10 351/608/10
f 363/606/10 351/608/10 364/607/10
f 360/1487/1 359/1466/1 362/603/1
f 360/1487/1 362/603/1 361/602/1
f 356/1467/1 355/1485/1 358/597/1
f 356/1467/1 358/597/1 357/596/1
f 350/588/47 352/590/47 348/591/47
f 350/588/47 348/591/47 346/589/47
f 353/1577/3 354/585/3 341/586/3
f 353/1577/3 341/586/3 340/1578/3
f 133/576/3 351/579/3 352/580/3
f 133/576/3 352/580/3 350/577/3
f 346/570/51 348/573/51 349/574/51
f 346/570/51 349/574/51 347/571/51
f 344/1579/273 345/1580/273 332/1581/273
f 344/1579/273 332/1581/273 330/1582/273
f 342/556/54 343/559/54 328/560/54
f 342/556/54 328/560/54 326/557/54
f 340/1583/274 341/1584/274 324/1585/274
f 340/1583/274 324/1585/274 322/1586/274
f 335/1587/58 338/545/58 339/546/58
f 335/1587/58 339/546/58 337/1588/58
f 330/1589/275 332/1590/275 333/1591/275
f 330/1589/275 333/1591/275 331/1592/275
f 326/529/62 328/532/62 329/533/62
f 326/529/62 329/533/62 327/530/62
f 322/1593/276 324/1594/276 325/1595/276
f 322/1593/276 325/1595/276 323/1596/276
f 320/515/82 309/514/82 311/517/82
f 320/515/82 311/517/82 321/516/82
f 318/509/81 305/508/81 307/511/81
f 318/509/81 307/511/81 319/510/81
f 313/501/67 316/504/67 317/505/67
f 313/501/67 317/505/67 314/502/67
f 308/493/80 310/496/80 311/499/80
f 308/493/80 311/499/80 309/494/80
f 304/487/71 306/490/71 307/491/71
f 304/487/71 307/491/71 305/488/71
f 300/1575/3 302/484/3 303/485/3
f 300/1575/3 303/485/3 301/1576/3
f 296/473/5 298/476/5 299/479/5
f 296/473/5 299/479/5 297/474/5
s off
