# Apple ModelIO OBJ File: ZOMBIE2_2
mtllib ZOMBIE2_2.mtl
g Cube_ZOMBIE
v -0.22219 6.10975 -0.22219
v -0.22219 6.10975 -0.66657
v -0.66657 6.10975 -0.66657
v -0.66657 6.10975 -0.22219
v -0.66657 5.44317 -0.22219
v -0.66657 5.60843 -0.66657
v 0.22219 5.60843 -0.66657
v 0.22219 6.10975 -0.66657
v 0.66657 6.10975 -0.66657
v 0.66657 5.60843 -0.66657
v -0.22219 4.7766 0.22219
v -0.22219 4.58526 0.714407
v -0.66657 4.7766 0.22219
v -0.66657 4.7766 0.66657
v -0.22219 5.44317 0.832756
v -0.22219 6.10975 0.494
v -0.66657 6.10975 0.494
v -0.66657 5.44317 0.66657
v 0.66657 5.44317 0.22219
v 0.66657 6.10975 0.22219
v 0.66657 6.10975 0.494
v 0.66657 5.44317 0.66657
v 0.22219 5.44317 0.832756
v 0.22219 6.10975 0.494
v 0.66657 4.7766 0.22219
v 0.66657 4.7766 0.66657
v 0.22219 4.58526 0.714407
v 0.22219 4.7766 0.22219
v -0.22219 5.60843 -0.66657
v 0.66657 6.10975 -0.22219
v 0.22219 6.10975 -0.22219
v 0.22219 6.10975 0.22219
v -0.22219 6.10975 0.22219
v 0.22219 5.10712 -0.66657
v 0.22219 4.7766 -0.22219
v -0.22219 4.7766 -0.22219
v -0.22219 5.10712 -0.66657
v -0.2814 4.37007 0.235431
v 0.2814 4.37007 0.235431
v 0.66657 5.10712 -0.66657
v 0.66657 4.7766 -0.22219
v 0.66657 5.44317 -0.22219
v -0.66657 4.7766 -0.22219
v -0.66657 5.10712 -0.66657
v -0.66657 6.10975 0.22219
v -0.66657 5.44317 0.22219
v -0.2814 3.65475 -0.613406
v 0.2814 3.65475 -0.613406
v 0.2814 2.56915 -0.379728
v -0.2814 2.56915 -0.379728
v -0.2814 4.37007 -0.25557
v 0.2814 4.37007 -0.25557
v 0.841237 2.64832 -0.194861
v 0.841237 2.64832 0.29614
v 0.970324 1.88982 0.29614
v 0.970324 1.88982 -0.194861
v 0.2814 1.48678 -0.379728
v 0.2814 3.35583 0.852389
v -0.2814 3.35583 0.852389
v -0.2814 2.56915 0.635769
v 0.2814 2.56915 0.635769
v 0.983692 4.12938 0.259927
v 0.983692 4.12938 -0.133856
v 0.983692 3.65915 -0.321266
v 0.983692 3.41942 0.562685
v -0.983692 3.41942 0.562685
v -0.983692 3.65915 -0.321266
v -0.841237 2.64832 0.29614
v -0.841237 2.64832 -0.194861
v -0.983692 4.12938 -0.133856
v -0.983692 4.12938 0.259927
v -0.2814 1.48678 0.635769
v 0.2814 1.48678 0.635769
v -0.2814 1.48678 -0.379728
v -0.88927 0.207254 0.247476
v -0.88927 0.207254 -0.127988
v -0.883961 0.097066 -0.123609
v -0.883961 0.097066 0.244289
v -0.362454 0.218974 -0.269355
v -0.367762 0.135948 -0.262127
v -0.970324 1.88982 -0.194861
v -0.970324 1.88982 0.29614
v 0.367762 0.135948 -0.262127
v 0.883961 0.097066 -0.123609
v 0.934889 -0.284745 -0.165626
v 0.316835 -0.226385 -0.331476
v 0.367762 0.135948 0.498767
v 0.316835 -0.226385 0.579556
v -0.362454 0.218974 0.507188
v -0.367762 0.135948 0.498767
v 0.889745 0.217125 0.247761
v 0.361979 0.226412 0.507942
v 0.883961 0.097066 0.244289
v 0.889745 0.217125 -0.128381
v 0.361979 0.226412 -0.270003
v -0.316835 -0.226385 0.579556
v -0.934889 -0.284745 0.274865
v -0.743149 -2.25111 0.159748
v -0.508574 -2.22896 0.275389
v 0.934889 -0.284745 0.274865
v 0.743149 -2.25111 0.159748
v 0.508574 -2.22896 0.275389
v -0.934889 -0.284745 -0.165626
v -0.316835 -0.226385 -0.331476
v -0.508574 -2.22896 -0.070382
v -0.743149 -2.25111 -0.007435
v 0.508574 -2.22896 -0.070382
v 0.743149 -2.25111 -0.007435
v -0.357146 0.302001 0.515608
v -0.894578 0.317442 0.250663
v -0.357146 0.302001 -0.276583
v -0.894578 0.317442 -0.132368
v 0.356195 0.316875 -0.277878
v 0.895529 0.337184 -0.133152
v 0.356195 0.316875 0.517117
v 0.895529 0.337184 0.251234
v 2.39044 4.00159 0.214612
v 2.39044 4.00159 -0.057519
v 2.39044 3.51096 0.397429
v 2.39044 3.67663 -0.187032
v 2.82981 3.98848 -0.097078
v 2.82981 3.58823 -0.256593
v -2.39044 3.51096 0.397429
v -2.39044 4.00159 0.214612
v -2.82981 3.38418 0.568554
v -2.82981 3.98848 0.238094
v -2.39044 3.67663 -0.187032
v -2.39044 4.00159 -0.057519
v 4.14784 3.59772 -0.083272
v 4.14784 3.8104 0.001488
v -4.14784 3.4893 0.355177
v -4.14784 3.8104 0.179584
v -2.82981 3.98848 -0.097077
v -2.82981 3.58823 -0.256593
v 2.82981 3.38418 0.568554
v 2.82981 3.98848 0.238094
v 4.14784 3.8104 0.179584
v 4.14784 3.4893 0.355177
v -4.14784 3.8104 0.001488
v -4.14784 3.59772 -0.083272
vn -0 1 -0
vn -1 -0 -0
vn -0 -0 -1
vn -0.1963 -0.9607 -0.1963
vn -0.172 0.3528 0.9198
vn 1 -0 -0
vn 0.172 0.3528 0.9198
vn -0 0.4531 0.8915
vn 0.1963 -0.9607 -0.1963
vn -0 -0.9321 -0.3623
vn -0 -0.8024 -0.5968
vn -0 0.0326 0.9995
vn -0 -1 -0
vn -0 -0.2104 -0.9776
vn -0.9896 0.1441 -0
vn 0.9896 0.1441 -0
vn -0 0.0818 -0.9966
vn 0.9858 0.1678 -0
vn 0.2769 0.0194 -0.9607
vn -0 -0.2655 0.9641
vn 0.3242 0.946 -0
vn 0.9874 -0.1557 -0.0272
vn -0.9874 -0.1557 -0.0272
vn 0.4526 -0.3017 0.8392
vn 0.3202 0.3958 -0.8607
vn -0.3242 0.946 -0
vn -0 -0 1
vn -0.2204 0.4591 0.8606
vn -0.3582 -0.1816 -0.9158
vn -0.3202 0.3958 -0.8607
vn -0.4526 -0.3017 0.8392
vn 0.3582 -0.1816 -0.9158
vn 0.2204 0.4591 0.8606
vn -0 0.5197 0.8543
vn -0 0.4474 -0.8943
vn -0 -0.1367 0.9906
vn 0.2487 -0.075 0.9657
vn -0.2487 -0.075 0.9657
vn -0.9988 -0.0481 -0
vn -0.2561 -0.058 -0.9649
vn -0.2769 0.0194 -0.9607
vn -0.9858 0.1678 -0
vn 0.4678 0.0328 0.8832
vn -0.4678 0.0328 0.8832
vn 0.2679 0.1426 -0.9528
vn -0.9903 0.1392 -0
vn 0.998 -0.0638 -0
vn 0.4395 -0.0539 0.8966
vn -0.4394 -0.0539 0.8967
vn 0.9988 -0.0481 -0
vn -0.998 -0.0638 -0
vn 0.2562 -0.058 -0.9649
vn -0.433 -0.0947 0.8964
vn 0.433 -0.0947 0.8964
vn -0.2679 0.1426 -0.9528
vn -0.9912 0.1322 -0
vn 0.9903 0.1392 -0
vn 0.4474 0.1324 0.8845
vn -0.4474 0.1324 0.8845
vn 0.9912 0.1322 -0
vn 0.094 -0.9956 -0
vn -0.094 -0.9956 -0
vn 0.9953 -0.097 -0
vn -0.9954 -0.0953 -0
vn 0.2489 -0.1018 -0.9632
vn -0.2489 -0.1018 -0.9632
vn -0.9953 -0.097 -0
vn 0.9954 -0.0953 -0
vn -0.4561 -0.0534 0.8883
vn -0.277 -0.0576 -0.9591
vn 0.2772 -0.0576 -0.9591
vn 0.4563 -0.0534 0.8882
vn -0.4417 -0.0538 0.8956
vn -0.2589 -0.0579 -0.9642
vn 0.2593 -0.0579 -0.9641
vn 0.442 -0.0538 0.8954
vn 0.0905 0.9959 -0
vn 0.074 0.3739 0.9245
vn -0.0724 0.3693 -0.9265
vn 0.1318 0.4208 0.8976
vn 0.0837 0.3689 -0.9257
vn 0.0344 -0.9634 -0.266
vn -0.0837 0.3689 -0.9257
vn -0.074 0.3739 0.9245
vn -0.0905 0.9959 -0
vn -0.0344 -0.9634 -0.266
vn 0.1186 0.3676 -0.9224
vn -0.1032 0.4772 0.8727
vn -0.0298 0.9996 -0
vn 0.2032 -0.9471 -0.2484
vn -0.1318 0.4208 0.8976
vn 0.0724 0.3693 -0.9265
vn 0.0298 0.9996 -0
vn -0.2032 -0.9471 -0.2484
vn -0.1339 0.991 -0
vn -0.0385 -0.97 -0.2399
vn 0.1032 0.4772 0.8727
vn -0.1186 0.3676 -0.9224
vn 0.1339 0.991 -0
vn 0.0385 -0.97 -0.2399
vt 0.08204 0.332252
vt 0.132943 0.332252
vt 0.132943 0.383155
vt 0.08204 0.383155
vt 0.285073 0.254519
vt 0.361428 0.254519
vt 0.361428 0.305422
vt 0.304003 0.305422
vt 0.498049 0.050904
vt 0.440624 0.050904
vt 0.440624 0
vt 0.498049 0
vt 0.912953 0.96425
vt 0.910953 0.90462
vt 0.962867 0.96425
vt 0.964866 0.914376
vt 0.91704 0.269036
vt 0.915512 0.354224
vt 0.865367 0.354224
vt 0.863838 0.275853
vt 0.259621 0.076356
vt 0.259621 0.152711
vt 0.228485 0.152711
vt 0.208717 0.076356
vt 0.964155 0.82625
vt 0.962627 0.90462
vt 0.910953 0.819432
vt 0.912482 0.90462
vt 0.967944 0.269036
vt 0.967944 0.354686
vt 0.91704 0.354686
vt 0.807853 0.374051
vt 0.805853 0.324178
vt 0.859766 0.314422
vt 0.857766 0.374051
vt 0.711001 0.970634
vt 0.711001 0.91014
vt 0.761904 0.91014
vt 0.761904 0.970634
vt 0.498049 0.152711
vt 0.440624 0.152711
vt 0.440624 0.101807
vt 0.498049 0.101807
vt 0.08204 0.230444
vt 0.132943 0.230444
vt 0.132943 0.281348
vt 0.08204 0.281348
vt 0 0.281348
vt 0.031136 0.281348
vt 0.031136 0.332252
vt 0 0.332252
vt 0 0.230444
vt 0.031136 0.230444
vt 0.767245 0.593639
vt 0.830684 0.593639
vt 0.830684 0.644543
vt 0.767245 0.644543
vt 0.046594 0.921143
vt 0.046594 0.972047
vt 0 0.978829
vt 0 0.914361
vt 0.767245 0.542736
vt 0.830684 0.542736
vt 0.208717 0.940959
vt 0.259621 0.940959
vt 0.259621 0.991862
vt 0.208717 0.991862
vt 0.361428 0.095286
vt 0.361428 0.152711
vt 0.310525 0.152711
vt 0.310525 0.076356
vt 0.830684 0.695447
vt 0.767245 0.695447
vt 0.940602 0.749003
vt 0.991506 0.749003
vt 0.991506 0.799907
vt 0.940602 0.799907
vt 0.285073 0.152711
vt 0.361428 0.172479
vt 0.361428 0.203615
vt 0.285073 0.203615
vt 0.031136 0.383155
vt 0 0.383155
vt 0.505093 0.862696
vt 0.440624 0.862696
vt 0.440624 0.735493
vt 0.505093 0.735493
vt 0.67095 0.916342
vt 0.67095 0.967246
vt 0.62389 0.97107
vt 0.62389 0.914826
vt 0.111529 0.925604
vt 0.111529 0.976507
vt 0.064469 0.978024
vt 0.064469 0.92178
vt 0.871956 0.917791
vt 0.871956 0.968695
vt 0.82523 0.975477
vt 0.82523 0.911009
vt 0.496868 0.950831
vt 0.440624 0.950831
vt 0.496868 0.862696
vt 0.070538 0.82274
vt 0.002439 0.82274
vt 0.087135 0.699894
vt 0 0.734672
vt 0.688359 0.914826
vt 0.62389 0.821358
vt 0.688359 0.821358
vt 0.119443 0.873194
vt 0.175656 0.875049
vt 0.175656 0.960136
vt 0.130573 0.958649
vt 0.31362 0.720754
vt 0.208717 0.720754
vt 0.215044 0.626107
vt 0.269355 0.611568
vt 0.545527 0.735493
vt 0.5392 0.640846
vt 0.484889 0.626307
vt 0.120897 0.779954
vt 0.206539 0.873194
vt 0.196177 0.779105
vt 0.910953 0.911009
vt 0.826799 0.892668
vt 0.82523 0.834774
vt 0.345207 0.957895
vt 0.288993 0.95975
vt 0.300123 0.874296
vt 0.345207 0.872808
vt 0.878861 0.123986
vt 0.814392 0.123986
vt 0.814392 0
vt 0.878861 0
vt 0.804387 0.381051
vt 0.804387 0.516832
vt 0.72329 0.492193
vt 0.720502 0.404143
vt 0.727282 0.126832
vt 0.736802 0
vt 0.804257 0.009457
vt 0.814392 0.126832
vt 0.595995 0.79162
vt 0.595995 0.883197
vt 0.511842 0.80996
vt 0.510272 0.867855
vt 0.433355 0.76342
vt 0.434808 0.85666
vt 0.347712 0.85666
vt 0.358074 0.762571
vt 0.70148 0.694526
vt 0.711001 0.821358
vt 0.634025 0.703983
vt 0.206539 0.643324
vt 0.206539 0.779105
vt 0.125442 0.667963
vt 0.122653 0.756013
vt 0.868856 0.517038
vt 0.804387 0.517038
vt 0.868856 0.381051
vt 0.064469 0.914361
vt 0 0.82274
vt 0.064469 0.82274
vt 0.208717 0.203615
vt 0.208717 0.254519
vt 0.208717 0.152711
vt 0.310525 0
vt 0.259621 0
vt 0.361428 0.03786
vt 0.555475 0.101807
vt 0.555475 0.050904
vt 0.555475 0.152711
vt 0.940602 0.695447
vt 0.940602 0.794652
vt 0.889699 0.794652
vt 0.889699 0.695447
vt 0.882638 0.621107
vt 0.880039 0.545011
vt 0.934036 0.542736
vt 0.934036 0.641775
vt 0.208717 0
vt 0.118465 0.82274
vt 0.118465 0.92178
vt 0.067068 0.843409
vt 0.064469 0.919505
vt 0.555475 0
vt 0.246578 0.305422
vt 0.928307 0.152711
vt 0.928307 0.269036
vt 0.863838 0.269036
vt 0.863838 0.152711
vt 0.74982 0.165348
vt 0.706811 0.165348
vt 0.707312 0.152711
vt 0.749455 0.152711
vt 0.608642 0.628939
vt 0.60956 0.56645
vt 0.619057 0.567596
vt 0.621288 0.628939
vt 0.293413 0.8436
vt 0.225314 0.8436
vt 0.295852 0.755532
vt 0.889699 0.819433
vt 0.82523 0.819433
vt 0.82523 0.695447
vt 0.823489 0.945292
vt 0.767245 0.945292
vt 0.767245 0.857157
vt 0.823489 0.857157
vt 0.43828 0.762571
vt 0.362835 0.762571
vt 0.347712 0.639578
vt 0.440624 0.674561
vt 0.712159 0.122993
vt 0.636715 0.122993
vt 0.727282 0
vt 0.63437 0.034983
vt 0.935149 0.686058
vt 0.934036 0.624684
vt 0.97763 0.616343
vt 0.97763 0.689949
vt 0.955876 0.364486
vt 0.955876 0.451647
vt 0.913963 0.459591
vt 0.913963 0.355232
vt 0.312399 0.314953
vt 0.223446 0.314953
vt 0.224411 0.305423
vt 0.311571 0.305423
vt 0.338816 0.3742
vt 0.339801 0.306796
vt 0.350147 0.30817
vt 0.352591 0.3742
vt 0.100336 0.53947
vt 0.101039 0.606761
vt 0.090841 0.540731
vt 0.088397 0.606761
vt 0.759629 0.556504
vt 0.716542 0.556504
vt 0.71694 0.542736
vt 0.759083 0.542736
vt 0.101682 0.393539
vt 0.012569 0.393539
vt 0.013471 0.383155
vt 0.100632 0.383155
vt 0.342117 0.374696
vt 0.338785 0.437211
vt 0.331707 0.375192
vt 0.325042 0.436213
vt 0.361428 0.228513
vt 0.440624 0.230326
vt 0.440624 0.457026
vt 0.410566 0.456337
vt 0.440624 0.2267
vt 0.410566 0.000688
vt 0.934036 0.608002
vt 0.935149 0.546627
vt 0.97763 0.616342
vt 0.97763 0.542736
vt 1 0.358735
vt 1 0.400877
vt 0.955876 0.40569
vt 0.955876 0.355232
vt 0.959167 0.007944
vt 0.959167 0.095104
vt 0.917254 0.104359
vt 0.917254 0
vt 0.913964 0.531445
vt 0.915079 0.465379
vt 0.95761 0.538807
vt 0.95761 0.459591
vt 0.929422 0.226139
vt 0.928307 0.160073
vt 0.971953 0.152711
vt 0.971953 0.231927
vt 0.811368 0.950106
vt 0.811368 0.992248
vt 0.767244 0.995751
vt 0.767244 0.945293
vt 0.646122 0.33555
vt 0.646122 0.375158
vt 0.619133 0.361912
vt 0.619133 0.342761
vt 0.352032 0.438208
vt 0.352032 0.477816
vt 0.325042 0.470605
vt 0.325042 0.451455
vt 0.545537 0.79162
vt 0.558724 0.565305
vt 0.577875 0.565305
vt 0.208717 0.230444
vt 0.104359 0.230444
vt 0.134267 0
vt 0.173875 0
vt 0.206539 0.231744
vt 0.178607 0.45829
vt 0.206539 0.458783
vt 0.619133 0.379751
vt 0.545537 0.38105
vt 0.619133 0.152711
vt 0.5912 0.153204
vt 0.805853 0.379026
vt 0.755395 0.379026
vt 0.773515 0.152711
vt 0.792666 0.152711
vt 0.034842 0
vt 0.07445 0
vt 0.545537 0.429814
vt 0.632105 0.381051
vt 0.563561 0.565305
vt 0.632105 0.561449
vt 0.325042 0.460476
vt 0.208717 0.460476
vt 0.222482 0.324483
vt 0.313227 0.324483
vt 0.126521 0.594297
vt 0.142914 0.458784
vt 0.206539 0.462861
vt 0.755395 0.35831
vt 0.699151 0.35831
vt 0.706309 0.177985
vt 0.750185 0.177985
vt 0.619133 0.201738
vt 0.699151 0.152711
vt 0.63532 0.335551
vt 0.699151 0.330909
vt 0.116325 0.538209
vt 0 0.538209
vt 0.011667 0.403923
vt 0.102733 0.403923
vt 0.767245 0.748334
vt 0.711001 0.748334
vt 0.716145 0.570273
vt 0.760176 0.570273
vt 0.440624 0.639578
vt 0.354056 0.590815
vt 0.371854 0.457025
vt 0.440624 0.461445
vt 0.109831 0.538209
vt 0.11368 0.606761
vt 0.595995 0.628939
vt 0.600064 0.565305
vt 0.352528 0.3742
vt 0.352528 0.438208
vt 0.325042 0.3742
vt 0.329456 0.305422
vt 0.756108 0.91014
vt 0.716191 0.748334
vt 0.747364 0.748334
vt 0.088397 0.699894
vt 0 0.699894
vt 0.076996 0.538415
vt 0.017043 0.538209
vt 0.889305 0.644211
vt 0.929303 0.641775
vt 0.929303 0.692331
vt 0.880039 0.695331
vt 0.561918 0.90411
vt 0.561918 0.96389
vt 0.510272 0.883197
vt 0.511766 0.961929
vt 0.82523 0.857157
vt 0.777606 0.695447
vt 0.817677 0.695447
vt 0.545537 0.313963
vt 0.440624 0.313963
vt 0.524524 0.152738
vt 0.454938 0.152711
vt 0.863838 0.314422
vt 0.805853 0.314422
vt 0.813406 0.152711
vt 0.853477 0.152711
vt 0.720501 0.542735
vt 0.632105 0.542735
vt 0.643505 0.381257
vt 0.703459 0.381051
vt 0.913963 0.517038
vt 0.8776 0.355232
vt 0.908773 0.355232
vt 0.545537 0.475215
vt 0.440624 0.475215
vt 0.461637 0.31399
vt 0.531223 0.313963
vt 0.295852 0.872808
vt 0.336846 0.720754
vt 0.310621 0.720754
vt 0.63437 0.151791
vt 0.555475 0.151791
vt 0.612078 0
vt 0.570156 0
vt 0.435082 0.907012
vt 0.40391 0.907012
vt 0.399378 0.85666
vt 0.437772 0.85666
vt 0.347713 0.948732
vt 0.34819 0.879159
vt 0.399378 0.954018
vt 0.613564 0.883197
vt 0.613564 0.942977
vt 0.563413 0.885158
vt 0.989866 0.749003
vt 0.949868 0.746567
vt 0.989866 0.698447
vt 0.538955 0.785846
vt 0.507783 0.785846
vt 0.543486 0.735493
vt 0.209195 0.91846
vt 0.208717 0.848887
vt 0.260383 0.8436
vt 0.260383 0.940959
vt 0.093294 0.654921
vt 0.088397 0.635116
vt 0.119274 0.606761
vt 0.119274 0.658498
vt 0.595995 0.652321
vt 0.600893 0.632517
vt 0.626873 0.680677
vt 0.626873 0.628939
vt 0.354056 0.639578
vt 0.315662 0.639578
vt 0.326953 0.487226
vt 0.347354 0.487226
vt 0.537992 0.475215
vt 0.459636 0.626307
vt 0.511373 0.626307
vt 0.711001 0.694526
vt 0.632105 0.694526
vt 0.654397 0.542736
vt 0.696319 0.542736
vt 0.880039 0.694789
vt 0.830684 0.694789
vt 0.86527 0.542736
vt 0.839045 0.542736
vt 0.917255 0.152352
vt 0.878861 0.152352
vt 0.885563 0
vt 0.905964 0
vt 0.306085 0.460476
vt 0.287072 0.611568
vt 0.235335 0.611568
usemtl ZOMBIE
f 1/1/1 2/2/1 3/3/1
f 1/1/1 3/3/1 4/4/1
f 5/5/2 4/6/2 3/7/2
f 5/5/2 3/7/2 6/8/2
f 7/9/3 8/10/3 9/11/3
f 7/9/3 9/11/3 10/12/3
f 11/13/4 12/14/4 13/15/4
f 12/14/4 14/16/4 13/15/4
f 15/17/5 16/18/5 17/19/5
f 15/17/5 17/19/5 18/20/5
f 19/21/6 20/22/6 21/23/6
f 19/21/6 21/23/6 22/24/6
f 22/25/7 21/26/7 23/27/7
f 21/26/7 24/28/7 23/27/7
f 23/29/8 24/30/8 16/31/8
f 23/29/8 16/31/8 15/17/8
f 25/32/9 26/33/9 27/34/9
f 25/32/9 27/34/9 28/35/9
f 28/36/10 27/37/10 12/38/10
f 28/36/10 12/38/10 11/39/10
f 6/40/3 3/41/3 2/42/3
f 6/40/3 2/42/3 29/43/3
f 29/43/3 2/42/3 8/10/3
f 29/43/3 8/10/3 7/9/3
f 30/44/1 9/45/1 8/46/1
f 30/44/1 8/46/1 31/47/1
f 31/47/1 8/46/1 2/2/1
f 31/47/1 2/2/1 1/1/1
f 24/48/1 32/49/1 33/50/1
f 24/48/1 33/50/1 16/51/1
f 32/49/1 31/47/1 1/1/1
f 32/49/1 1/1/1 33/50/1
f 21/52/1 20/53/1 32/49/1
f 21/52/1 32/49/1 24/48/1
f 20/53/1 30/44/1 31/47/1
f 20/53/1 31/47/1 32/49/1
f 34/54/11 35/55/11 36/56/11
f 34/54/11 36/56/11 37/57/11
f 28/58/12 11/59/12 38/60/12
f 28/58/12 38/60/12 39/61/12
f 40/62/11 41/63/11 35/55/11
f 40/62/11 35/55/11 34/54/11
f 41/64/13 25/65/13 28/66/13
f 41/64/13 28/66/13 35/67/13
f 10/68/6 9/69/6 30/70/6
f 10/68/6 30/70/6 42/71/6
f 42/71/6 30/70/6 20/22/6
f 42/71/6 20/22/6 19/21/6
f 37/57/11 36/56/11 43/72/11
f 37/57/11 43/72/11 44/73/11
f 36/74/13 11/75/13 13/76/13
f 36/74/13 13/76/13 43/77/13
f 18/78/2 17/79/2 45/80/2
f 18/78/2 45/80/2 46/81/2
f 46/81/2 45/80/2 4/6/2
f 46/81/2 4/6/2 5/5/2
f 16/51/1 33/50/1 45/82/1
f 16/51/1 45/82/1 17/83/1
f 33/50/1 1/1/1 4/4/1
f 33/50/1 4/4/1 45/82/1
f 47/84/14 48/85/14 49/86/14
f 47/84/14 49/86/14 50/87/14
f 11/88/15 36/89/15 51/90/15
f 11/88/15 51/90/15 38/91/15
f 35/92/16 28/93/16 39/94/16
f 35/92/16 39/94/16 52/95/16
f 36/96/17 35/97/17 52/98/17
f 36/96/17 52/98/17 51/99/17
f 53/100/18 54/101/18 55/85/18
f 53/100/18 55/85/18 56/102/18
f 49/103/19 53/104/19 57/105/19
f 53/104/19 56/106/19 57/105/19
f 58/107/20 59/91/20 60/108/20
f 58/107/20 60/108/20 61/109/20
f 52/110/21 39/111/21 62/112/21
f 52/110/21 62/112/21 63/113/21
f 64/114/22 65/115/22 54/116/22
f 64/114/22 54/116/22 53/117/22
f 66/118/23 67/86/23 68/119/23
f 67/86/23 69/120/23 68/119/23
f 58/110/24 61/121/24 65/122/24
f 61/121/24 54/123/24 65/122/24
f 48/27/25 52/124/25 63/125/25
f 48/27/25 63/125/25 64/126/25
f 38/127/26 51/128/26 70/129/26
f 38/127/26 70/129/26 71/130/26
f 61/131/27 60/132/27 72/133/27
f 61/131/27 72/133/27 73/134/27
f 59/135/28 38/136/28 71/137/28
f 59/135/28 71/137/28 66/138/28
f 47/139/29 50/140/29 69/141/29
f 47/139/29 69/141/29 67/142/29
f 51/143/30 47/144/30 70/145/30
f 47/144/30 67/146/30 70/145/30
f 60/147/31 59/148/31 66/149/31
f 60/147/31 66/149/31 68/150/31
f 49/151/32 48/152/32 53/153/32
f 48/152/32 64/108/32 53/153/32
f 39/154/33 58/155/33 62/156/33
f 58/155/33 65/157/33 62/156/33
f 39/158/34 38/159/34 59/135/34
f 39/158/34 59/135/34 58/160/34
f 51/161/35 52/61/35 48/162/35
f 51/161/35 48/162/35 47/163/35
f 13/164/2 46/81/2 5/5/2
f 13/164/2 5/5/2 43/165/2
f 14/166/2 18/78/2 46/81/2
f 14/166/2 46/81/2 13/164/2
f 41/167/6 42/71/6 19/21/6
f 41/167/6 19/21/6 25/168/6
f 40/169/6 10/68/6 42/71/6
f 40/169/6 42/71/6 41/167/6
f 37/170/3 29/43/3 7/9/3
f 37/170/3 7/9/3 34/171/3
f 44/172/3 6/40/3 29/43/3
f 44/172/3 29/43/3 37/170/3
f 27/173/36 23/174/36 15/175/36
f 27/173/36 15/175/36 12/176/36
f 26/177/37 22/178/37 23/179/37
f 26/177/37 23/179/37 27/180/37
f 25/168/6 19/21/6 22/24/6
f 25/168/6 22/24/6 26/181/6
f 12/182/38 15/183/38 14/184/38
f 15/183/38 18/185/38 14/184/38
f 34/171/3 7/9/3 10/12/3
f 34/171/3 10/12/3 40/186/3
f 43/165/2 5/5/2 6/8/2
f 43/165/2 6/8/2 44/187/2
f 57/188/13 73/189/13 72/190/13
f 57/188/13 72/190/13 74/191/13
f 75/192/39 76/193/39 77/194/39
f 75/192/39 77/194/39 78/195/39
f 76/196/40 79/197/40 80/198/40
f 76/196/40 80/198/40 77/199/40
f 69/200/41 50/201/41 74/115/41
f 69/200/41 74/115/41 81/202/41
f 50/203/3 49/204/3 57/205/3
f 50/203/3 57/205/3 74/176/3
f 68/206/42 69/207/42 81/208/42
f 68/206/42 81/208/42 82/209/42
f 54/210/43 61/211/43 73/212/43
f 54/210/43 73/212/43 55/213/43
f 60/214/44 68/215/44 72/216/44
f 68/215/44 82/217/44 72/216/44
f 83/218/45 84/219/45 85/220/45
f 83/218/45 85/220/45 86/221/45
f 87/222/46 83/223/46 86/224/46
f 87/222/46 86/224/46 88/225/46
f 79/226/47 89/227/47 90/228/47
f 79/226/47 90/228/47 80/229/47
f 91/230/48 92/231/48 87/232/48
f 91/230/48 87/232/48 93/233/48
f 89/234/49 75/235/49 90/236/49
f 75/235/49 78/237/49 90/236/49
f 94/238/50 91/239/50 93/240/50
f 94/238/50 93/240/50 84/241/50
f 92/242/51 95/243/51 83/244/51
f 92/242/51 83/244/51 87/245/51
f 95/246/52 94/247/52 83/248/52
f 94/247/52 84/249/52 83/248/52
f 96/250/53 97/251/53 98/252/53
f 96/250/53 98/252/53 99/253/53
f 100/254/54 88/250/54 101/11/54
f 88/250/54 102/255/54 101/11/54
f 77/256/55 80/257/55 103/258/55
f 80/257/55 104/259/55 103/258/55
f 78/260/56 77/261/56 103/262/56
f 78/260/56 103/262/56 97/263/56
f 80/264/57 90/265/57 96/266/57
f 80/264/57 96/266/57 104/267/57
f 93/268/58 87/269/58 100/270/58
f 87/269/58 88/271/58 100/270/58
f 90/272/59 78/273/59 97/274/59
f 90/272/59 97/274/59 96/275/59
f 84/276/60 93/277/60 100/278/60
f 84/276/60 100/278/60 85/279/60
f 105/280/61 99/281/61 98/282/61
f 105/280/61 98/282/61 106/283/61
f 102/284/62 107/285/62 108/286/62
f 102/284/62 108/286/62 101/287/62
f 85/143/63 100/288/63 101/289/63
f 85/143/63 101/289/63 108/290/63
f 88/291/64 86/292/64 107/293/64
f 88/291/64 107/293/64 102/294/64
f 86/45/65 85/295/65 107/296/65
f 85/295/65 108/297/65 107/296/65
f 103/298/66 104/299/66 106/300/66
f 104/299/66 105/301/66 106/300/66
f 97/302/67 103/303/67 106/304/67
f 97/302/67 106/304/67 98/305/67
f 104/292/68 96/52/68 99/306/68
f 104/292/68 99/306/68 105/307/68
f 72/308/69 82/309/69 109/310/69
f 82/309/69 110/311/69 109/310/69
f 74/312/47 72/313/47 109/314/47
f 74/312/47 109/314/47 111/315/47
f 81/154/70 74/316/70 111/317/70
f 81/154/70 111/317/70 112/318/70
f 82/319/39 81/320/39 112/321/39
f 82/319/39 112/321/39 110/322/39
f 57/323/71 56/324/71 113/325/71
f 56/324/71 114/326/71 113/325/71
f 73/327/51 57/328/51 113/329/51
f 73/327/51 113/329/51 115/330/51
f 56/331/50 55/332/50 116/333/50
f 56/331/50 116/333/50 114/334/50
f 55/335/72 73/336/72 115/337/72
f 55/335/72 115/337/72 116/338/72
f 109/339/73 110/340/73 89/234/73
f 110/340/73 75/235/73 89/234/73
f 111/315/47 109/314/47 89/227/47
f 111/315/47 89/227/47 79/226/47
f 112/341/74 111/342/74 79/197/74
f 112/341/74 79/197/74 76/196/74
f 110/322/39 112/321/39 76/193/39
f 110/322/39 76/193/39 75/192/39
f 113/343/75 114/344/75 95/246/75
f 114/344/75 94/247/75 95/246/75
f 115/330/51 113/329/51 95/243/51
f 115/330/51 95/243/51 92/242/51
f 114/334/50 116/333/50 91/239/50
f 114/334/50 91/239/50 94/238/50
f 116/345/76 115/346/76 92/231/76
f 116/345/76 92/231/76 91/230/76
f 63/347/77 62/37/77 117/348/77
f 63/347/77 117/348/77 118/349/77
f 62/350/78 65/351/78 117/352/78
f 65/351/78 119/353/78 117/352/78
f 120/354/79 118/355/79 121/356/79
f 120/354/79 121/356/79 122/357/79
f 123/358/80 124/359/80 125/360/80
f 124/359/80 126/361/80 125/360/80
f 64/362/81 63/208/81 118/363/81
f 64/362/81 118/363/81 120/364/81
f 65/365/82 64/366/82 119/367/82
f 64/366/82 120/368/82 119/367/82
f 70/369/83 67/370/83 127/371/83
f 70/369/83 127/371/83 128/372/83
f 66/373/84 71/374/84 124/375/84
f 66/373/84 124/375/84 123/376/84
f 71/377/85 70/158/85 128/378/85
f 71/377/85 128/378/85 124/379/85
f 67/380/86 66/381/86 123/382/86
f 67/380/86 123/382/86 127/383/86
f 122/130/87 121/384/87 129/385/87
f 121/384/87 130/386/87 129/385/87
f 125/387/88 126/388/88 131/389/88
f 126/388/88 132/390/88 131/389/88
f 124/391/89 128/392/89 133/393/89
f 124/391/89 133/393/89 126/394/89
f 127/395/90 123/396/90 134/397/90
f 123/396/90 125/393/90 134/397/90
f 117/398/91 119/399/91 135/359/91
f 117/398/91 135/359/91 136/400/91
f 128/401/92 127/402/92 134/173/92
f 128/401/92 134/173/92 133/403/92
f 118/404/93 117/405/93 136/87/93
f 118/404/93 136/87/93 121/406/93
f 119/407/94 120/408/94 122/409/94
f 119/407/94 122/409/94 135/410/94
f 130/411/6 137/412/6 138/413/6
f 130/411/6 138/413/6 129/414/6
f 132/415/2 139/416/2 131/417/2
f 139/416/2 140/418/2 131/417/2
f 126/419/95 133/420/95 139/421/95
f 126/419/95 139/421/95 132/422/95
f 134/381/96 125/423/96 140/424/96
f 125/423/96 131/425/96 140/424/96
f 136/426/97 135/427/97 138/428/97
f 136/426/97 138/428/97 137/429/97
f 133/430/98 134/431/98 139/432/98
f 134/431/98 140/433/98 139/432/98
f 121/434/99 136/435/99 137/436/99
f 121/434/99 137/436/99 130/437/99
f 135/313/100 122/438/100 129/439/100
f 135/313/100 129/439/100 138/440/100
s off
